<svg viewBox="0 0 1024 1024" xmlns="http://www.w3.org/2000/svg">
	<path d="M316 96h392c122 0 220 98 220 220v392c0 122-98 220-220 220H316C194 928 96 830 96 708V316C96 194 194 96 316 96z" fill="#16A34A" opacity="0.12" />
	<circle cx="760" cy="264" r="96" fill="#0EA5E9" opacity="0.22" />
	<path d="M266 792c92 56 238 74 370 18 108-46 190-138 220-246" fill="none" stroke="#86EFAC" stroke-width="54" stroke-linecap="round" opacity="0.28" />
	<g fill="#16A34A" stroke="#16A34A">
		<defs><style type="text/css"></style></defs><path d="M926.54933333 370.9952L645.9392 97.8944c-38.87786667-37.6832-112.81066667-37.75146667-151.79093333 0.1024l-348.84266667 341.23093333c-60.17706667 58.368-75.43466667 81.8176-75.43466667 161.04106667v153.53173333c0 141.6192 28.7744 204.8 199.3728 204.8h140.66346667c86.528 0 137.0112-49.7664 206.88213333-118.6816l309.3504-317.5424c19.83146667-19.18293333 31.19786667-46.8992 31.19786667-76.01493333 0-28.91093333-11.22986667-56.38826667-30.78826667-75.3664zM310.40853333 805.0688c-56.45653333 0-102.4-45.94346667-102.4-102.4s45.94346667-102.4 102.4-102.4 102.4 45.94346667 102.4 102.4-45.94346667 102.4-102.4 102.4z" p-id="5253"></path>
	</g>
</svg>
