<svg viewBox="0 0 1024 1024" xmlns="http://www.w3.org/2000/svg">
	<path d="M316 96h392c122 0 220 98 220 220v392c0 122-98 220-220 220H316C194 928 96 830 96 708V316C96 194 194 96 316 96z" fill="#9333EA" opacity="0.12" />
	<circle cx="760" cy="264" r="96" fill="#F97316" opacity="0.22" />
	<path d="M266 792c92 56 238 74 370 18 108-46 190-138 220-246" fill="none" stroke="#C084FC" stroke-width="54" stroke-linecap="round" opacity="0.28" />
	<g fill="#9333EA" stroke="#9333EA">
		<g fill="none" stroke="#9333EA" stroke-linecap="round" stroke-linejoin="round" stroke-width="68">
		<path d="M314 274v-72c0-56 46-102 102-102h192c56 0 102 46 102 102v72" />
		<rect x="108" y="274" rx="92" />
		<path d="M108 476h808M444 476v98h136v-98M304 690h416" />
	</g>
	</g>
</svg>
