<svg viewBox="0 0 1024 1024" xmlns="http://www.w3.org/2000/svg">
	<path d="M316 96h392c122 0 220 98 220 220v392c0 122-98 220-220 220H316C194 928 96 830 96 708V316C96 194 194 96 316 96z" fill="#2563EB" opacity="0.12" />
	<circle cx="760" cy="264" r="96" fill="#F59E0B" opacity="0.22" />
	<path d="M266 792c92 56 238 74 370 18 108-46 190-138 220-246" fill="none" stroke="#38BDF8" stroke-width="54" stroke-linecap="round" opacity="0.28" />
	<g fill="#2563EB" stroke="#2563EB">
		<path
        d="M806.17746541 830.19020779q0 24.03410627-9.6136425 44.70343859t-26.43751688 36.53184248-39.41593523 24.99547051-48.54889561 9.13296038l-341.28431463 0q-25.95683476 0-48.54889561-9.13296038t-39.41593523-24.99547051-26.43751688-36.53184248-9.61364251-44.70343859l0-644.11405832q0-24.03410627 9.61364251-45.18412073t26.43751688-37.01252459 39.41593523-24.99547051 48.54889561-9.13296038l341.28431463 0q25.95683476 0 48.54889561 9.13296038t39.41593523 24.99547051 26.43751688 37.01252459 9.61364251 45.18412073l0 644.11405832zM728.30696019 232.2216354l-434.53664791 0 0 550.86172411 434.53664789 0 2e-8-550.86172411zM511.03863576 810.00155851q-20.18864927 0-35.0897961 14.42046378t-14.90114589 35.57047821q0 20.18864927 14.90114589 35.08979611t35.0897961 14.90114587q21.15001351 0 35.57047821-14.90114587t14.42046375-35.08979611q0-21.15001351-14.42046375-35.57047821t-35.57047821-14.42046378zM587.94777674 150.50567219q0-7.690914-4.80682126-12.01705313t-10.57500675-4.32613911l-122.09326171 0q-4.80682124 0-10.09432465 4.32613911t-5.28750335 12.01705313 4.80682124 12.01705315 10.57500676 4.32613912l122.09326171 0q5.7681855 0 10.57500675-4.32613912t4.80682126-12.01705315z"
        p-id="1587"></path>
	</g>
</svg>
