<svg viewBox="0 0 1024 1024" xmlns="http://www.w3.org/2000/svg">
	<path d="M316 96h392c122 0 220 98 220 220v392c0 122-98 220-220 220H316C194 928 96 830 96 708V316C96 194 194 96 316 96z" fill="#EA580C" opacity="0.12" />
	<circle cx="760" cy="264" r="96" fill="#14B8A6" opacity="0.22" />
	<path d="M266 792c92 56 238 74 370 18 108-46 190-138 220-246" fill="none" stroke="#FDBA74" stroke-width="54" stroke-linecap="round" opacity="0.28" />
	<g fill="#EA580C" stroke="#EA580C">
		<path d="M417.07812475 69.03125a63.28124988 63.28124988 0 0 0-63.28124987 63.28124988v31.64062537a63.28124988 63.28124988 0 0 0 63.28124987 63.28124987h189.8437505a63.28124988 63.28124988 0 0 0 63.28124987-63.28124988V132.31249988a63.28124988 63.28124988 0 0 0-63.28124988-63.28124988h-189.84375049zM243.05468738 132.31249988h31.64062537v31.64062537A142.38281287 142.38281287 0 0 0 417.07812475 306.33593725h189.8437505a142.38281287 142.38281287 0 0 0 142.382812-142.382812V132.31249988h31.64062537a94.92187525 94.92187525 0 0 1 94.92187525 94.92187524v632.81249963a94.92187525 94.92187525 0 0 1-94.92187525 94.92187525h-537.89062524a94.92187525 94.92187525 0 0 1-94.92187525-94.92187525v-632.81249963A94.92187525 94.92187525 0 0 1 243.05468738 132.31249988z" p-id="2942"></path>
	</g>
</svg>
