<svg viewBox="0 0 1024 1024" xmlns="http://www.w3.org/2000/svg">
	<path d="M316 96h392c122 0 220 98 220 220v392c0 122-98 220-220 220H316C194 928 96 830 96 708V316C96 194 194 96 316 96z" fill="#BE185D" opacity="0.12" />
	<circle cx="760" cy="264" r="96" fill="#06B6D4" opacity="0.22" />
	<path d="M266 792c92 56 238 74 370 18 108-46 190-138 220-246" fill="none" stroke="#F9A8D4" stroke-width="54" stroke-linecap="round" opacity="0.28" />
	<g fill="#BE185D" stroke="#BE185D">
		<defs><style type="text/css"></style></defs><path d="M512 960.00035C264.5696 960.00035 63.99965 759.4304 63.99965 512S264.5696 63.99965 512 63.99965 960.00035 264.5696 960.00035 512 759.4304 960.00035 512 960.00035z m-179.20035-403.2a179.20035 179.20035 0 1 0 358.4007 0H332.79965z m0-89.6007a67.2 67.2 0 1 0 0-134.4 67.2 67.2 0 0 0 0 134.4z m358.4007 0a67.2 67.2 0 1 0 0-134.4 67.2 67.2 0 0 0 0 134.4z" p-id="4413"></path>
	</g>
</svg>
