<svg viewBox="0 0 1024 1024" xmlns="http://www.w3.org/2000/svg">
	<path d="M316 96h392c122 0 220 98 220 220v392c0 122-98 220-220 220H316C194 928 96 830 96 708V316C96 194 194 96 316 96z" fill="#BE185D" opacity="0.12" />
	<circle cx="760" cy="264" r="96" fill="#06B6D4" opacity="0.22" />
	<path d="M266 792c92 56 238 74 370 18 108-46 190-138 220-246" fill="none" stroke="#F9A8D4" stroke-width="54" stroke-linecap="round" opacity="0.28" />
	<g fill="#BE185D" stroke="#BE185D">
		<path d="M817.20057251 190.7982501c-35.78466627-49.20391625-89.46166619-76.04241621-147.6117498-76.04241621H360.94607314C302.79598955 114.75583389 249.11898963 141.59433386 213.33432336 190.7982501l-125.24633351 178.92333344c-40.25774994 53.67699992-31.31158363 125.2463335 13.41924998 174.45024975l317.58891587 313.11583324c53.67699992 53.67699992 134.19249981 53.67699992 187.86949974 0l317.58891691-313.11583324c44.73083362-44.73083362 53.67699992-120.77324983 13.41924998-174.45024975l-125.2463335-178.92333344z m-187.86949974 241.54649967c-71.56933359 35.78466627-156.5579161 35.78466627-228.12724968 0-26.83849996-13.41924998-35.78466627-44.73083362-22.36541733-71.56933254s44.73083362-35.78466627 71.56933358-22.36541732c40.25774994 22.36541628 89.46166619 22.36541628 129.71941613 0 26.83849996-13.41924998 58.15008361 0 71.56933358 22.36541732 13.41924998 26.83849996 0 58.15008361-22.36541628 71.56933254z" p-id="2789"></path>
	</g>
</svg>
