<svg viewBox="0 0 1024 1024" xmlns="http://www.w3.org/2000/svg">
	<path d="M316 96h392c122 0 220 98 220 220v392c0 122-98 220-220 220H316C194 928 96 830 96 708V316C96 194 194 96 316 96z" fill="#0F766E" opacity="0.12" />
	<circle cx="760" cy="264" r="96" fill="#EAB308" opacity="0.22" />
	<path d="M266 792c92 56 238 74 370 18 108-46 190-138 220-246" fill="none" stroke="#5EEAD4" stroke-width="54" stroke-linecap="round" opacity="0.28" />
	<g fill="#0F766E" stroke="#0F766E">
		<defs><style type="text/css"></style></defs><path d="M891.733 170.667H132.267c-38.4 0-68.267 29.866-68.267 68.266v102.4h896v-102.4c0-38.4-29.867-68.266-68.267-68.266z m0 704c38.4 0 68.267-29.867 68.267-68.267V426.667H64V806.4c0 38.4 29.867 68.267 68.267 68.267h759.466zM192 554.667h253.867c19.2 0 32 12.8 32 32s-12.8 32-32 32H187.733c-17.066-2.134-27.733-14.934-27.733-32 0-19.2 12.8-32 32-32z m0 128h128c19.2 0 32 12.8 32 32s-12.8 32-32 32H187.733c-17.066-2.134-27.733-14.934-27.733-32 0-19.2 12.8-32 32-32z" p-id="4973"></path>
	</g>
</svg>
