<svg viewBox="0 0 1024 1024" xmlns="http://www.w3.org/2000/svg">
	<path d="M316 96h392c122 0 220 98 220 220v392c0 122-98 220-220 220H316C194 928 96 830 96 708V316C96 194 194 96 316 96z" fill="#9333EA" opacity="0.12" />
	<circle cx="760" cy="264" r="96" fill="#F97316" opacity="0.22" />
	<path d="M266 792c92 56 238 74 370 18 108-46 190-138 220-246" fill="none" stroke="#C084FC" stroke-width="54" stroke-linecap="round" opacity="0.28" />
	<g fill="#9333EA" stroke="#9333EA">
		<defs><style type="text/css"></style></defs><path d="M364.8 590.62857143H182.85714286c-60.34285714 0-109.71428571-49.37142857-109.71428572-109.71428572V182.85714286c0-60.34285714 49.37142857-109.71428571 109.71428572-109.71428572h181.94285714c60.34285714 0 109.71428571 49.37142857 109.71428571 109.71428572v298.05714285c0 60.34285714-49.37142857 109.71428571-109.71428571 109.71428572zM841.14285714 358.4H659.2c-60.34285714 0-109.71428571-49.37142857-109.71428571-109.71428571V182.85714286c0-60.34285714 49.37142857-109.71428571 109.71428571-109.71428572H841.14285714c60.34285714 0 109.71428571 49.37142857 109.71428572 109.71428572v65.82857143c0 60.34285714-49.37142857 109.71428571-109.71428572 109.71428571zM364.8 950.85714286H182.85714286c-60.34285714 0-109.71428571-49.37142857-109.71428572-109.71428572v-65.82857143c0-60.34285714 49.37142857-109.71428571 109.71428572-109.71428571h181.94285714c60.34285714 0 109.71428571 49.37142857 109.71428571 109.71428571v65.82857143c0 60.34285714-49.37142857 109.71428571-109.71428571 109.71428572z m476.34285714 0H659.2c-60.34285714 0-109.71428571-49.37142857-109.71428571-109.71428572V543.08571429c0-60.34285714 49.37142857-109.71428571 109.71428571-109.71428572H841.14285714c60.34285714 0 109.71428571 49.37142857 109.71428572 109.71428572V841.14285714c0 60.34285714-49.37142857 109.71428571-109.71428572 109.71428572z" p-id="4553"></path>
	</g>
</svg>
