<svg viewBox="0 0 1024 1024" xmlns="http://www.w3.org/2000/svg">
	<path d="M316 96h392c122 0 220 98 220 220v392c0 122-98 220-220 220H316C194 928 96 830 96 708V316C96 194 194 96 316 96z" fill="#7C3AED" opacity="0.12" />
	<circle cx="760" cy="264" r="96" fill="#22C55E" opacity="0.22" />
	<path d="M266 792c92 56 238 74 370 18 108-46 190-138 220-246" fill="none" stroke="#A78BFA" stroke-width="54" stroke-linecap="round" opacity="0.28" />
	<g fill="#7C3AED" stroke="#7C3AED">
		<path d="M860.84266704 124.928c-43.008-19.11466704-95.57333296-19.11466704-200.704-19.11466704H363.86133296c-105.13066704 0-162.47466704 0-200.704 19.11466704-38.22933296 19.11466704-66.90133296 47.78666705-81.23733296 81.23733295-19.11466704 43.008-19.11466704 95.57333296-19.11466704 200.70400001V607.57333296c0 105.13066704 0 162.47466704 19.11466704 200.704 19.11466704 38.22933296 47.78666705 66.90133296 81.23733296 81.23733408 43.008 19.11466704 95.57333296 19.11466704 200.704 19.11466592h296.27733408c105.13066704 0 162.47466704 0 200.704-19.11466592 38.22933296-19.11466704 66.90133296-47.78666705 81.23733296-81.23733408 19.11466704-43.008 19.11466704-95.57333296 19.11466704-200.704V406.86933296c0-105.13066704 0-162.47466704-19.11466704-200.70400001-19.11466704-38.22933296-47.78666705-66.90133296-81.23733296-81.23733295zM249.17333296 373.41866704c0-43.008 33.45066704-76.45866703 76.45866704-76.45866704s76.45866703 33.45066704 76.45866704 76.45866704-33.45066704 76.45866703-76.45866704 76.45866592-76.45866703-33.45066704-76.45866704-76.45866592z m463.53066704 377.51466592h-334.50666704c-57.344 0-76.45866703-71.68-33.45066592-105.13066592l238.93333296-176.81066704c38.22933296-28.672 90.79466704-14.33599999 109.90933297 28.67200001l71.67999999 172.03199999c14.33599999 38.22933296-9.55733296 81.23733295-52.56533296 81.23733296z" p-id="2950"></path>
	</g>
</svg>
