<svg viewBox="0 0 1024 1024" xmlns="http://www.w3.org/2000/svg">
	<path d="M316 96h392c122 0 220 98 220 220v392c0 122-98 220-220 220H316C194 928 96 830 96 708V316C96 194 194 96 316 96z" fill="#0284C7" opacity="0.12" />
	<circle cx="760" cy="264" r="96" fill="#84CC16" opacity="0.22" />
	<path d="M266 792c92 56 238 74 370 18 108-46 190-138 220-246" fill="none" stroke="#7DD3FC" stroke-width="54" stroke-linecap="round" opacity="0.28" />
	<g fill="#0284C7" stroke="#0284C7">
		<path d="M256 96h512c53 0 96 43 96 96v640c0 53-43 96-96 96H256c-53 0-96-43-96-96V192c0-53 43-96 96-96zm64 160v96h384v-96H320zm0 192v64h384v-64H320zm0 128v64h256v-64H320zm372 26-45-45-91 91-39-39-45 45 84 84 136-136z"/>
	</g>
</svg>
