<svg viewBox="0 0 1024 1024" xmlns="http://www.w3.org/2000/svg">
	<path d="M316 96h392c122 0 220 98 220 220v392c0 122-98 220-220 220H316C194 928 96 830 96 708V316C96 194 194 96 316 96z" fill="#2563EB" opacity="0.12" />
	<circle cx="760" cy="264" r="96" fill="#F59E0B" opacity="0.22" />
	<path d="M266 792c92 56 238 74 370 18 108-46 190-138 220-246" fill="none" stroke="#38BDF8" stroke-width="54" stroke-linecap="round" opacity="0.28" />
	<g fill="#2563EB" stroke="#2563EB">
		<defs><style type="text/css"></style></defs><path d="M407.467 488.533a106.667 106.667 0 1 0 213.333 0 106.667 106.667 0 1 0-213.333 0z" p-id="10298"></path><path d="M512 64C264.533 64 64 264.533 64 512c0 236.8 183.467 428.8 416 445.867v-134.4c-53.333-59.734-200.533-230.4-200.533-334.934 0-130.133 104.533-234.666 234.666-234.666S748.8 358.4 748.8 488.533c0 61.867-49.067 153.6-145.067 270.934L544 827.733V960c232.533-17.067 416-211.2 416-448 0-247.467-200.533-448-448-448z" p-id="10299"></path>
	</g>
</svg>
