<svg viewBox="0 0 1024 1024" xmlns="http://www.w3.org/2000/svg">
	<path d="M316 96h392c122 0 220 98 220 220v392c0 122-98 220-220 220H316C194 928 96 830 96 708V316C96 194 194 96 316 96z" fill="#7C3AED" opacity="0.12" />
	<circle cx="760" cy="264" r="96" fill="#22C55E" opacity="0.22" />
	<path d="M266 792c92 56 238 74 370 18 108-46 190-138 220-246" fill="none" stroke="#A78BFA" stroke-width="54" stroke-linecap="round" opacity="0.28" />
	<g fill="#7C3AED" stroke="#7C3AED">
		<path d="M512 96c230 0 416 186 416 416S742 928 512 928 96 742 96 512 282 96 512 96zm0 96c-177 0-320 143-320 320s143 320 320 320 320-143 320-320-143-320-320-320zm-32 128h64v64c74 12 128 57 128 128h-96c0-35-29-56-64-56s-64 18-64 48c0 34 35 43 91 58 66 18 149 42 149 139 0 72-53 121-144 134v61h-64v-61c-92-13-144-66-144-146h96c0 45 32 72 80 72s80-23 80-57c0-36-37-46-94-62-66-18-146-41-146-135 0-70 49-120 128-134V320z"/>
	</g>
</svg>
