<svg viewBox="0 0 1024 1024" xmlns="http://www.w3.org/2000/svg">
	<path d="M316 96h392c122 0 220 98 220 220v392c0 122-98 220-220 220H316C194 928 96 830 96 708V316C96 194 194 96 316 96z" fill="#16A34A" opacity="0.12" />
	<circle cx="760" cy="264" r="96" fill="#0EA5E9" opacity="0.22" />
	<path d="M266 792c92 56 238 74 370 18 108-46 190-138 220-246" fill="none" stroke="#86EFAC" stroke-width="54" stroke-linecap="round" opacity="0.28" />
	<g fill="#16A34A" stroke="#16A34A">
		<defs><style type="text/css"></style></defs><path d="M512.13653333 899.75239111H98.48604445c-17.72657778 0-23.19928889-5.24515555-22.96035556-22.8352 0.32995555-25.14488889-0.9216-50.49457778 1.8432-75.38915556 9.92142222-89.15626667 78.21084445-161.57582222 164.27235556-174.54648888 11.42328889-1.71804445 23.08551111-2.63964445 34.64533333-2.65102222 157.16124445-0.17066667 314.31111111-0.11377778 471.47235555-0.11377778 100.16995555 0 183.10257778 69.95057778 197.56373334 169.19893333 4.33493333 29.7984 2.62826667 60.49564445 3.16302222 90.79466667 0.14791111 8.23751111-6.98595555 14.57493333-15.29173334 15.37137778-2.93546667 0.28444445-5.92782222 0.17066667-8.88604444 0.17066666H512.13653333z m201.18186667-560.44657778c0 121.05955555-97.60995555 218.30542222-219.63662222 217.69102222-123.0848-0.6144-218.16888889-102.33173333-216.73528889-220.88817777 1.39946667-115.87128889 97.05244445-217.30417778 222.50382222-215.08551111 121.32124445 2.1504 215.26755555 102.68444445 213.86808889 218.28266666z" p-id="5676"></path>
	</g>
</svg>
