<svg viewBox="0 0 1024 1024" xmlns="http://www.w3.org/2000/svg">
	<path d="M316 96h392c122 0 220 98 220 220v392c0 122-98 220-220 220H316C194 928 96 830 96 708V316C96 194 194 96 316 96z" fill="#0891B2" opacity="0.12" />
	<circle cx="760" cy="264" r="96" fill="#F97316" opacity="0.22" />
	<path d="M266 792c92 56 238 74 370 18 108-46 190-138 220-246" fill="none" stroke="#67E8F9" stroke-width="54" stroke-linecap="round" opacity="0.28" />
	<g fill="#0891B2" stroke="#0891B2">
		<path
        d="M858.61262222 956.47971556h-693.22524444c-53.01134222 0-97.86709332-44.85575112-97.86709334-101.94488889v-232.43434667h888.95943112v232.43434667c0 57.08913778-44.85575112 101.94488889-97.86709334 101.94488889z m-236.51214222-220.20096H177.62076444v110.10048h444.47971556v-110.10048z m224.27875556 0h-110.10048v110.10048h110.10048v-110.10048zM67.52028444 165.38737778C67.52028444 108.29823999 112.37603556 63.44248888 165.38737778 63.44248888h693.22524444c53.01134222 0 97.86709332 44.85575112 97.86709334 101.9448889v399.62396444H67.52028444V165.38737778zM246.94328888 471.22204445l81.55591112-138.64504889 187.57859556 126.41166222 101.94488888-159.03402666 199.81198222 114.17827556 44.85575112-81.55591112-277.29009777-175.3452089-93.78929779 163.11182223-203.88977778-110.10048001-122.33386666 216.12316446 81.5559111 44.85575111z"
        p-id="3510"></path>
	</g>
</svg>
