<svg viewBox="0 0 1024 1024" xmlns="http://www.w3.org/2000/svg">
	<path d="M316 96h392c122 0 220 98 220 220v392c0 122-98 220-220 220H316C194 928 96 830 96 708V316C96 194 194 96 316 96z" fill="#9333EA" opacity="0.12" />
	<circle cx="760" cy="264" r="96" fill="#F97316" opacity="0.22" />
	<path d="M266 792c92 56 238 74 370 18 108-46 190-138 220-246" fill="none" stroke="#C084FC" stroke-width="54" stroke-linecap="round" opacity="0.28" />
	<g fill="#9333EA" stroke="#9333EA">
		<path d="M707.05550847 162.93846913c23.90639348-71.86008365-66.5058029-128.08003144-125.59076095-78.05977714l-395.55923205 334.97131839c-39.68743145 33.62864008-33.25290146 94.59229348 12.68119123 119.90770821l190.21786849 104.97208297-71.86008366 216.33172931c-23.90639348 71.86008365 66.5058029 128.08003144 125.59076095 78.05977714l395.51226431-334.97131839c39.7343992-33.62864008 33.2998692-94.59229348-12.68119123-119.90770821l-190.21786849-104.97208297 71.9070514-216.33172931z" p-id="3352"></path>
	</g>
</svg>
