<svg viewBox="0 0 1024 1024" xmlns="http://www.w3.org/2000/svg">
	<path d="M316 96h392c122 0 220 98 220 220v392c0 122-98 220-220 220H316C194 928 96 830 96 708V316C96 194 194 96 316 96z" fill="#0284C7" opacity="0.12" />
	<circle cx="760" cy="264" r="96" fill="#84CC16" opacity="0.22" />
	<path d="M266 792c92 56 238 74 370 18 108-46 190-138 220-246" fill="none" stroke="#7DD3FC" stroke-width="54" stroke-linecap="round" opacity="0.28" />
	<g fill="#0284C7" stroke="#0284C7">
		<defs><style type="text/css"></style></defs><path d="M228.255 913.307H66.103V672.523h162.152v240.784z m243.21 0H309.319V351.483h162.146v561.824z m243.216 0h-162.14v-321.04h162.14v321.04z m243.215 0H795.744V110.693h162.152v802.614z" p-id="8898"></path>
	</g>
</svg>
