<svg viewBox="0 0 1024 1024" xmlns="http://www.w3.org/2000/svg">
	<path d="M316 96h392c122 0 220 98 220 220v392c0 122-98 220-220 220H316C194 928 96 830 96 708V316C96 194 194 96 316 96z" fill="#2563EB" opacity="0.12" />
	<circle cx="760" cy="264" r="96" fill="#F59E0B" opacity="0.22" />
	<path d="M266 792c92 56 238 74 370 18 108-46 190-138 220-246" fill="none" stroke="#38BDF8" stroke-width="54" stroke-linecap="round" opacity="0.28" />
	<g fill="#2563EB" stroke="#2563EB">
		<path d="M224 128h576c53 0 96 43 96 96v576c0 53-43 96-96 96H224c-53 0-96-43-96-96V224c0-53 43-96 96-96zm96 128h96v96h-96v-96zm160 16v64h224v-64H480zM320 448h96v96h-96v-96zm160 16v64h288v-64H480zM320 640h96v96h-96v-96zm160 16v64h224v-64H480z"/>
	</g>
</svg>
