<svg viewBox="0 0 1024 1024" xmlns="http://www.w3.org/2000/svg">
	<path d="M316 96h392c122 0 220 98 220 220v392c0 122-98 220-220 220H316C194 928 96 830 96 708V316C96 194 194 96 316 96z" fill="#9333EA" opacity="0.12" />
	<circle cx="760" cy="264" r="96" fill="#F97316" opacity="0.22" />
	<path d="M266 792c92 56 238 74 370 18 108-46 190-138 220-246" fill="none" stroke="#C084FC" stroke-width="54" stroke-linecap="round" opacity="0.28" />
	<g fill="#9333EA" stroke="#9333EA">
		<path
        d="M512 70.99999966c243.55327466 0 441.00000034 197.44672466 441.00000034 441.00000034S755.55327466 953.00000034 512 953.00000034 70.99999966 755.55327466 70.99999966 512 268.44672534 70.99999966 512 70.99999966z m221.80095 329.38290068a33.075 33.075 0 0 0-46.76805 0.06615L545.835725 542.04312534l-84.5397-92.10285068a33.075 33.075 0 0 0-48.17924966-0.59535l-123.36975 127.89000068a33.075 33.075 0 1 0 47.60594932 45.93014966l98.97142534-102.59865 84.15382534 91.6839a33.075 33.075 0 0 0 47.793375 0.99225l165.59549966-166.09162466a33.075 33.075 0 0 0-0.06615-46.76805z"
        p-id="2461"></path>
	</g>
</svg>
