<svg viewBox="0 0 1024 1024" xmlns="http://www.w3.org/2000/svg">
	<path d="M316 96h392c122 0 220 98 220 220v392c0 122-98 220-220 220H316C194 928 96 830 96 708V316C96 194 194 96 316 96z" fill="#9333EA" opacity="0.12" />
	<circle cx="760" cy="264" r="96" fill="#F97316" opacity="0.22" />
	<path d="M266 792c92 56 238 74 370 18 108-46 190-138 220-246" fill="none" stroke="#C084FC" stroke-width="54" stroke-linecap="round" opacity="0.28" />
	<g fill="#9333EA" stroke="#9333EA">
		<path d="M512 96c159 0 288 129 288 288 0 93-44 176-112 229v91c0 35-29 64-64 64H400c-35 0-64-29-64-64v-91c-68-53-112-136-112-229 0-159 129-288 288-288zm-96 736h192v64H416v-64zm16-160h160v-96c0-22 11-43 29-56 50-36 83-96 83-136 0-106-86-192-192-192s-192 86-192 192c0 40 33 100 83 136 18 13 29 34 29 56v96zm80-352 45 45-96 96-45-45 96-96z"/>
	</g>
</svg>
