<svg viewBox="0 0 1024 1024" xmlns="http://www.w3.org/2000/svg">
	<path d="M316 96h392c122 0 220 98 220 220v392c0 122-98 220-220 220H316C194 928 96 830 96 708V316C96 194 194 96 316 96z" fill="#DC2626" opacity="0.12" />
	<circle cx="760" cy="264" r="96" fill="#FBBF24" opacity="0.22" />
	<path d="M266 792c92 56 238 74 370 18 108-46 190-138 220-246" fill="none" stroke="#FB7185" stroke-width="54" stroke-linecap="round" opacity="0.28" />
	<g fill="#DC2626" stroke="#DC2626">
		<path d="M160 160h544c53 0 96 43 96 96v288c0 53-43 96-96 96H384L192 800V640h-32c-53 0-96-43-96-96V256c0-53 43-96 96-96zm96 192h352v64H256v-64zm0 128h256v64H256v-64zm576-128h32c53 0 96 43 96 96v256c0 53-43 96-96 96h-32v128L704 800H512v-96h224c53 0 96-43 96-96V352z"/>
	</g>
</svg>
