<svg viewBox="0 0 1024 1024" xmlns="http://www.w3.org/2000/svg">
	<path d="M316 96h392c122 0 220 98 220 220v392c0 122-98 220-220 220H316C194 928 96 830 96 708V316C96 194 194 96 316 96z" fill="#2563EB" opacity="0.12" />
	<circle cx="760" cy="264" r="96" fill="#F59E0B" opacity="0.22" />
	<path d="M266 792c92 56 238 74 370 18 108-46 190-138 220-246" fill="none" stroke="#38BDF8" stroke-width="54" stroke-linecap="round" opacity="0.28" />
	<g fill="#2563EB" stroke="#2563EB">
		<path d="M894.39 193.61A222.53 222.53 0 0 0 736 128H288A224 224 0 0 0 64 352v320a224 224 0 0 0 224 224h448a224 224 0 0 0 224-224V352a222.53 222.53 0 0 0-65.61-158.39z m-140.7 233.32L526.31 540.62a32 32 0 0 1-28.62 0L270.31 426.93A32 32 0 0 1 256 384a32 32 0 0 1 42.93-14.31l205.91 103a16 16 0 0 0 14.32 0l205.91-103A32 32 0 0 1 768 384a32 32 0 0 1-14.31 42.93z" p-id="5928"></path>
	</g>
</svg>
