<svg viewBox="0 0 1024 1024" xmlns="http://www.w3.org/2000/svg">
	<path d="M316 96h392c122 0 220 98 220 220v392c0 122-98 220-220 220H316C194 928 96 830 96 708V316C96 194 194 96 316 96z" fill="#7C3AED" opacity="0.12" />
	<circle cx="760" cy="264" r="96" fill="#22C55E" opacity="0.22" />
	<path d="M266 792c92 56 238 74 370 18 108-46 190-138 220-246" fill="none" stroke="#A78BFA" stroke-width="54" stroke-linecap="round" opacity="0.28" />
	<g fill="#7C3AED" stroke="#7C3AED">
		<path d="M512 65.8099385c-244.23035002 0-446.1900615 201.95971258-446.1900615 446.1900615s201.95971258 446.1900615 446.1900615 446.1900615 446.1900615-201.95971258 446.1900615-446.1900615-201.95971258-446.1900615-446.1900615-446.1900615z m-37.57389958 375.7389991c14.09021248 9.39347462 28.18042496 14.09021248 56.36084992 23.4836871 23.4836871 9.39347462 51.66411206 18.78695034 70.4510624 37.57390068 23.4836871 18.78695034 51.66411206 46.9673753 46.9673742 89.23801164 0 32.87716282-18.78695034 61.05758778-42.27063744 79.84453812-14.09021248 14.09021248-32.87716282 18.78695034-51.66411206 23.4836871v23.4836871c0 28.18042496-18.78695034 46.9673753-46.9673753 46.9673753s-46.9673753-18.78695034-46.9673742-46.9673753v-23.4836871c-28.18042496-4.69673786-51.66411206-14.09021248-75.14780026-28.18042496s-28.18042496-42.27063744-14.09021248-65.75432454c14.09021248-23.4836871 42.27063744-28.18042496 65.75432454-14.09021248 18.78695034 14.09021248 51.66411206 18.78695034 84.54127488 14.09021248 14.09021248 0 23.4836871-4.69673786 28.18042496-9.39347572l-9.39347462-9.39347462c-14.09021248-9.39347462-28.18042496-14.09021248-56.36084992-23.4836871-23.4836871-9.39347462-51.66411206-18.78695034-70.4510624-37.57390068-23.4836871-18.78695034-51.66411206-46.9673753-46.9673753-89.23801164 0-32.87716282 18.78695034-61.05758778 42.27063744-79.84453812 14.09021248-14.09021248 32.87716282-18.78695034 51.66411316-23.4836871v-23.4836871c0-28.18042496 18.78695034-46.9673753 46.9673742-46.9673753s46.9673753 18.78695034 46.9673753 46.9673753v23.4836871c28.18042496 4.69673786 51.66411206 14.09021248 75.14780026 28.18042496s28.18042496 42.27063744 14.09021249 65.75432454c-14.09021248 23.4836871-42.27063744 28.18042496-65.75432565 14.09021248-18.78695034-14.09021248-51.66411206-18.78695034-84.54127488-14.09021248-14.09021248 0-23.4836871 4.69673786-28.18042496 9.39347572l9.39347572 9.39347462z" p-id="6565"></path>
	</g>
</svg>
