<svg viewBox="0 0 1024 1024" xmlns="http://www.w3.org/2000/svg">
	<path d="M316 96h392c122 0 220 98 220 220v392c0 122-98 220-220 220H316C194 928 96 830 96 708V316C96 194 194 96 316 96z" fill="#0284C7" opacity="0.12" />
	<circle cx="760" cy="264" r="96" fill="#84CC16" opacity="0.22" />
	<path d="M266 792c92 56 238 74 370 18 108-46 190-138 220-246" fill="none" stroke="#7DD3FC" stroke-width="54" stroke-linecap="round" opacity="0.28" />
	<g fill="#0284C7" stroke="#0284C7">
		<path
        d="M823.04 746.24H200.96c-15.36 0-28.8-11.52-28.8-28.8v-11.52c0-15.36 11.52-28.8 28.8-28.8h120.96c19.2 0 36.48-15.36 36.48-36.48s-15.36-32.64-34.56-32.64H200.96c-55.68 0-99.84 44.16-99.84 99.84v11.52c0 55.68 44.16 99.84 99.84 99.84h620.16c15.36 0 28.8 11.52 28.8 28.8v9.6c0 15.36-11.52 28.8-28.8 28.8H308.48c-19.2 0-36.48 15.36-36.48 36.48 0 19.2 15.36 36.48 36.48 36.48h512.64c55.68 0 99.84-44.16 99.84-99.84v-11.52c1.92-57.6-44.16-101.76-97.92-101.76z"
        p-id="1702"></path>
    <path
        d="M512 66.56c-128.64 0-232.32 103.68-232.32 232.32S437.12 654.08 512 654.08c96 0 232.32-226.56 232.32-355.2S638.72 66.56 512 66.56zM512 416c-65.28 0-119.04-53.76-119.04-119.04s53.76-119.04 119.04-119.04 119.04 53.76 119.04 119.04S577.28 416 512 416z"
        p-id="1703"></path>
	</g>
</svg>
