<svg viewBox="0 0 1024 1024" xmlns="http://www.w3.org/2000/svg">
	<path d="M316 96h392c122 0 220 98 220 220v392c0 122-98 220-220 220H316C194 928 96 830 96 708V316C96 194 194 96 316 96z" fill="#65A30D" opacity="0.12" />
	<circle cx="760" cy="264" r="96" fill="#3B82F6" opacity="0.22" />
	<path d="M266 792c92 56 238 74 370 18 108-46 190-138 220-246" fill="none" stroke="#BEF264" stroke-width="54" stroke-linecap="round" opacity="0.28" />
	<g fill="#65A30D" stroke="#65A30D">
		<path d="M240 128h64v96h416v-96h64v96h48c53 0 96 43 96 96v512c0 53-43 96-96 96H192c-53 0-96-43-96-96V320c0-53 43-96 96-96h48v-96zm-48 288v416h640V416H192zm448 114 45 45-173 173-109-109 45-45 64 64 128-128zM272 512h96v96h-96v-96z"/>
	</g>
</svg>
