<svg viewBox="0 0 1024 1024" xmlns="http://www.w3.org/2000/svg">
	<path d="M316 96h392c122 0 220 98 220 220v392c0 122-98 220-220 220H316C194 928 96 830 96 708V316C96 194 194 96 316 96z" fill="#16A34A" opacity="0.12" />
	<circle cx="760" cy="264" r="96" fill="#0EA5E9" opacity="0.22" />
	<path d="M266 792c92 56 238 74 370 18 108-46 190-138 220-246" fill="none" stroke="#86EFAC" stroke-width="54" stroke-linecap="round" opacity="0.28" />
	<g fill="#16A34A" stroke="#16A34A">
		<path d="M160 224h704c53 0 96 43 96 96v384c0 53-43 96-96 96H160c-53 0-96-43-96-96V320c0-53 43-96 96-96zm32 128v320h640V352H192zm320 32 96 96h-72v64h96v64h-96v96h-64v-96h-96v-64h96v-64h-72l96-96zm-224 96c-35 0-64-29-64-64v-16h-32v224h32v-16c0-35 29-64 64-64h16v-64h-16zm448 0h-16v64h16c35 0 64 29 64 64v16h32V400h-32v16c0 35-29 64-64 64z"/>
	</g>
</svg>
