<svg viewBox="0 0 1024 1024" xmlns="http://www.w3.org/2000/svg">
	<path d="M316 96h392c122 0 220 98 220 220v392c0 122-98 220-220 220H316C194 928 96 830 96 708V316C96 194 194 96 316 96z" fill="#9333EA" opacity="0.12" />
	<circle cx="760" cy="264" r="96" fill="#F97316" opacity="0.22" />
	<path d="M266 792c92 56 238 74 370 18 108-46 190-138 220-246" fill="none" stroke="#C084FC" stroke-width="54" stroke-linecap="round" opacity="0.28" />
	<g fill="#9333EA" stroke="#9333EA">
		<path d="M512 128c106 0 192 86 192 192s-86 192-192 192-192-86-192-192 86-192 192-192zm0 448c178 0 320 103 320 232v24c0 35-29 64-64 64H256c-35 0-64-29-64-64v-24c0-129 142-232 320-232zm192 32 64 64 128-128 48 48-176 176-112-112 48-48z"/>
	</g>
</svg>
