<svg viewBox="0 0 1024 1024" xmlns="http://www.w3.org/2000/svg">
	<path d="M316 96h392c122 0 220 98 220 220v392c0 122-98 220-220 220H316C194 928 96 830 96 708V316C96 194 194 96 316 96z" fill="#0891B2" opacity="0.12" />
	<circle cx="760" cy="264" r="96" fill="#F97316" opacity="0.22" />
	<path d="M266 792c92 56 238 74 370 18 108-46 190-138 220-246" fill="none" stroke="#67E8F9" stroke-width="54" stroke-linecap="round" opacity="0.28" />
	<g fill="#0891B2" stroke="#0891B2">
		<path d="M128 224c0-53 43-96 96-96h224l96 96h256c53 0 96 43 96 96v96H128V224zm0 256h768v320c0 53-43 96-96 96H224c-53 0-96-43-96-96V480zm224 96v64h320v-64H352zm0 128v64h224v-64H352z"/>
	</g>
</svg>
