<svg viewBox="0 0 1024 1024" xmlns="http://www.w3.org/2000/svg">
	<path d="M316 96h392c122 0 220 98 220 220v392c0 122-98 220-220 220H316C194 928 96 830 96 708V316C96 194 194 96 316 96z" fill="#BE185D" opacity="0.12" />
	<circle cx="760" cy="264" r="96" fill="#06B6D4" opacity="0.22" />
	<path d="M266 792c92 56 238 74 370 18 108-46 190-138 220-246" fill="none" stroke="#F9A8D4" stroke-width="54" stroke-linecap="round" opacity="0.28" />
	<g fill="#BE185D" stroke="#BE185D">
		<g fill="none" stroke="#BE185D" stroke-linecap="round" stroke-linejoin="round" stroke-width="66">
		<path d="M166 572a346 346 0 1 1 692 0v170a92 92 0 0 1-92 92H258a92 92 0 0 1-92-92V572z" />
		<path d="M512 264v96M302 356l70 70M722 356l-70 70M244 572h96M684 572h96" />
		<path d="M512 602l174-132" />
		<circle cx="512" cy="602" r="58" fill="#BE185D" stroke="none" />
	</g>
	</g>
</svg>
