<svg viewBox="0 0 1024 1024" xmlns="http://www.w3.org/2000/svg">
	<path d="M316 96h392c122 0 220 98 220 220v392c0 122-98 220-220 220H316C194 928 96 830 96 708V316C96 194 194 96 316 96z" fill="#DC2626" opacity="0.12" />
	<circle cx="760" cy="264" r="96" fill="#FBBF24" opacity="0.22" />
	<path d="M266 792c92 56 238 74 370 18 108-46 190-138 220-246" fill="none" stroke="#FB7185" stroke-width="54" stroke-linecap="round" opacity="0.28" />
	<g fill="#DC2626" stroke="#DC2626">
		<path d="M224 256h480c47 0 88 34 96 80l32 176h32c35 0 64 29 64 64v128h-96c0 71-57 128-128 128s-128-57-128-128H384c0 71-57 128-128 128s-128-57-128-128H96V576c0-35 29-64 64-64h32l32-176c8-46 49-80 96-80zm64 96-29 160h506l-29-160H288zm-32 416c35 0 64-29 64-64s-29-64-64-64-64 29-64 64 29 64 64 64zm448 0c35 0 64-29 64-64s-29-64-64-64-64 29-64 64 29 64 64 64z"/>
	</g>
</svg>
