<svg viewBox="0 0 1024 1024" xmlns="http://www.w3.org/2000/svg">
	<path d="M316 96h392c122 0 220 98 220 220v392c0 122-98 220-220 220H316C194 928 96 830 96 708V316C96 194 194 96 316 96z" fill="#0F766E" opacity="0.12" />
	<circle cx="760" cy="264" r="96" fill="#EAB308" opacity="0.22" />
	<path d="M266 792c92 56 238 74 370 18 108-46 190-138 220-246" fill="none" stroke="#5EEAD4" stroke-width="54" stroke-linecap="round" opacity="0.28" />
	<g fill="#0F766E" stroke="#0F766E">
		<defs><style type="text/css"></style></defs><path d="M512 64C265.6 64 64 265.6 64 512s201.6 448 448 448 448-201.6 448-448S758.4 64 512 64z m179.2 480l-256 156.8c-6.4 3.2-12.8 3.2-19.2 3.2-6.4 0-9.6 0-16-3.2-9.6-6.4-16-16-16-28.8V352c0-12.8 6.4-22.4 16-28.8 9.6-6.4 22.4-6.4 32 0l256 166.4c9.6 6.4 16 16 16 28.8 0 9.6-3.2 22.4-12.8 25.6z" p-id="6937"></path>
	</g>
</svg>
