<svg viewBox="0 0 1024 1024" xmlns="http://www.w3.org/2000/svg">
	<path d="M316 96h392c122 0 220 98 220 220v392c0 122-98 220-220 220H316C194 928 96 830 96 708V316C96 194 194 96 316 96z" fill="#BE185D" opacity="0.12" />
	<circle cx="760" cy="264" r="96" fill="#06B6D4" opacity="0.22" />
	<path d="M266 792c92 56 238 74 370 18 108-46 190-138 220-246" fill="none" stroke="#F9A8D4" stroke-width="54" stroke-linecap="round" opacity="0.28" />
	<g fill="#BE185D" stroke="#BE185D">
		<defs><style type="text/css"></style></defs><path d="M947.2 422.4L572.8 115.2c-32-25.6-86.4-25.6-118.4 0L76.8 425.6c-12.8 6.4-16 22.4-9.6 35.2 3.2 12.8 16 19.2 28.8 19.2h32v364.8c0 48 35.2 83.2 83.2 83.2H416c19.2 0 32-12.8 32-32V748.8c0-22.4 35.2-44.8 64-44.8 28.8 0 67.2 22.4 67.2 44.8V896c0 19.2 12.8 32 32 32h208c48 0 80-32 80-83.2V480h32c12.8 0 25.6-9.6 28.8-22.4 3.2-12.8 0-25.6-12.8-35.2z" p-id="10158"></path>
	</g>
</svg>
