<svg viewBox="0 0 1024 1024" xmlns="http://www.w3.org/2000/svg">
	<path d="M316 96h392c122 0 220 98 220 220v392c0 122-98 220-220 220H316C194 928 96 830 96 708V316C96 194 194 96 316 96z" fill="#DC2626" opacity="0.12" />
	<circle cx="760" cy="264" r="96" fill="#FBBF24" opacity="0.22" />
	<path d="M266 792c92 56 238 74 370 18 108-46 190-138 220-246" fill="none" stroke="#FB7185" stroke-width="54" stroke-linecap="round" opacity="0.28" />
	<g fill="#DC2626" stroke="#DC2626">
		<g fill="none" stroke="#DC2626" stroke-linecap="round" stroke-linejoin="round" stroke-width="66">
		<path d="M512 126l338 192v388L512 898 174 706V318l338-192z" />
		<path d="M174 318l338 194 338-194M512 512v386" />
		<path d="M360 222l336 194M664 222L328 416" opacity=".55" />
		<circle cx="512" cy="512" r="74" fill="#DC2626" stroke="none" />
	</g>
	</g>
</svg>
