<svg viewBox="0 0 1024 1024" xmlns="http://www.w3.org/2000/svg">
	<path d="M316 96h392c122 0 220 98 220 220v392c0 122-98 220-220 220H316C194 928 96 830 96 708V316C96 194 194 96 316 96z" fill="#BE185D" opacity="0.12" />
	<circle cx="760" cy="264" r="96" fill="#06B6D4" opacity="0.22" />
	<path d="M266 792c92 56 238 74 370 18 108-46 190-138 220-246" fill="none" stroke="#F9A8D4" stroke-width="54" stroke-linecap="round" opacity="0.28" />
	<g fill="#BE185D" stroke="#BE185D">
		<g fill="none" stroke="#BE185D" stroke-linecap="round" stroke-linejoin="round" stroke-width="70">
		<path d="M342 292L142 512l200 220M682 292l200 220-200 220M568 204L456 820" />
		<path d="M430 512h164" opacity=".55" />
	</g>
	</g>
</svg>
