<svg viewBox="0 0 1024 1024" xmlns="http://www.w3.org/2000/svg">
	<path d="M316 96h392c122 0 220 98 220 220v392c0 122-98 220-220 220H316C194 928 96 830 96 708V316C96 194 194 96 316 96z" fill="#2563EB" opacity="0.12" />
	<circle cx="760" cy="264" r="96" fill="#F59E0B" opacity="0.22" />
	<path d="M266 792c92 56 238 74 370 18 108-46 190-138 220-246" fill="none" stroke="#38BDF8" stroke-width="54" stroke-linecap="round" opacity="0.28" />
	<g fill="#2563EB" stroke="#2563EB">
		<path d="M267.52 893.44l-144.853333-14.72A39.04 39.04 0 0 1 85.333333 837.333333l75.733334-572.586666a42.666667 42.666667 0 0 1 47.786666-32.853334l144.853334 14.506667a39.04 39.04 0 0 1 37.76 41.386667l-76.16 572.8a42.666667 42.666667 0 0 1-47.786667 32.853333z" p-id="2860"></path><path d="M678.826667 310.826667m36.266666 0l188.373334 0q36.266667 0 36.266666 36.266666l0 501.546667q0 36.266667-36.266666 36.266667l-188.373334 0q-36.266667 0-36.266666-36.266667l0-501.546667q0-36.266667 36.266666-36.266666Z" p-id="2861"></path><path d="M391.893333 130.346667m36.266667 0l188.373333 0q36.266667 0 36.266667 36.266666l0 690.773334q0 36.266667-36.266667 36.266666l-188.373333 0q-36.266667 0-36.266667-36.266666l0-690.773334q0-36.266667 36.266667-36.266666Z" p-id="2862"></path>
	</g>
</svg>
