<svg viewBox="0 0 1024 1024" xmlns="http://www.w3.org/2000/svg">
	<path d="M316 96h392c122 0 220 98 220 220v392c0 122-98 220-220 220H316C194 928 96 830 96 708V316C96 194 194 96 316 96z" fill="#0891B2" opacity="0.12" />
	<circle cx="760" cy="264" r="96" fill="#F97316" opacity="0.22" />
	<path d="M266 792c92 56 238 74 370 18 108-46 190-138 220-246" fill="none" stroke="#67E8F9" stroke-width="54" stroke-linecap="round" opacity="0.28" />
	<g fill="#0891B2" stroke="#0891B2">
		<g fill="none" stroke="#0891B2" stroke-linecap="round" stroke-linejoin="round" stroke-width="68">
		<path d="M512 154c194 0 352 158 352 352S706 858 512 858c-138 0-258-80-316-196" />
		<path d="M170 470l42 198 186-72" />
		<path d="M512 326v208l142 84" />
	</g>
	</g>
</svg>
