<svg viewBox="0 0 1024 1024" xmlns="http://www.w3.org/2000/svg">
	<path d="M316 96h392c122 0 220 98 220 220v392c0 122-98 220-220 220H316C194 928 96 830 96 708V316C96 194 194 96 316 96z" fill="#4F46E5" opacity="0.12" />
	<circle cx="760" cy="264" r="96" fill="#10B981" opacity="0.22" />
	<path d="M266 792c92 56 238 74 370 18 108-46 190-138 220-246" fill="none" stroke="#818CF8" stroke-width="54" stroke-linecap="round" opacity="0.28" />
	<g fill="#4F46E5" stroke="#4F46E5">
		<defs><style type="text/css"></style></defs><path d="M960.14 330.74c0-57.69-46.92-104.61-104.64-104.61S750.86 273.05 750.86 330.74c0 49.41 34.5 90.69 80.64 101.61-41.46 82.65-96.24 159.48-125.58 159.48-28.56 0-86.13-83.31-144.36-242.94 41.88-18.42 70.41-59.97 70.41-107.94 0-65.28-53.13-118.38-118.41-118.38-65.31 0-118.44 53.13-118.44 118.38 0 48.09 28.65 89.7 70.65 108.03C403.79 520.7 349.85 583.97 327.71 583.97c-41.13 0-98.25-79.98-135.42-151.65 46.17-10.89 80.73-52.2 80.73-101.64 0-57.69-46.95-104.61-104.64-104.61S63.74 273.05 63.74 330.74c0 39.54 22.32 73.62 54.78 91.41L139.25 839.81a29.955 29.955 0 0 0 13.86 23.82c4.35 2.79 109.41 67.65 360.45 67.65s356.1-65.1 360.45-67.86a30.1209375 30.1209375 0 0 0 13.86-24l18.48-417.81c31.92-17.88 53.79-51.69 53.79-90.87z" p-id="11279"></path>
	</g>
</svg>
