<svg viewBox="0 0 1024 1024" xmlns="http://www.w3.org/2000/svg">
	<path d="M316 96h392c122 0 220 98 220 220v392c0 122-98 220-220 220H316C194 928 96 830 96 708V316C96 194 194 96 316 96z" fill="#16A34A" opacity="0.12" />
	<circle cx="760" cy="264" r="96" fill="#0EA5E9" opacity="0.22" />
	<path d="M266 792c92 56 238 74 370 18 108-46 190-138 220-246" fill="none" stroke="#86EFAC" stroke-width="54" stroke-linecap="round" opacity="0.28" />
	<g fill="#16A34A" stroke="#16A34A">
		<path d="M872 224H536c-12 0-30-6-36-18L404 92C398 86 380 74 368 74H152C98 74 56 116 56 170v678c0 54 42 96 96 96h720c54 0 96-42 96-96V320c6-54-42-96-96-96z m-192 486H344c-24 0-48-18-48-48 0-24 18-48 48-48h336c24 0 48 18 48 48 0 24-24 48-48 48z" p-id="3372"></path>
	</g>
</svg>
