<svg viewBox="0 0 1024 1024" xmlns="http://www.w3.org/2000/svg">
	<path d="M316 96h392c122 0 220 98 220 220v392c0 122-98 220-220 220H316C194 928 96 830 96 708V316C96 194 194 96 316 96z" fill="#16A34A" opacity="0.12" />
	<circle cx="760" cy="264" r="96" fill="#0EA5E9" opacity="0.22" />
	<path d="M266 792c92 56 238 74 370 18 108-46 190-138 220-246" fill="none" stroke="#86EFAC" stroke-width="54" stroke-linecap="round" opacity="0.28" />
	<g fill="#16A34A" stroke="#16A34A">
		<path d="M448 96h128l64 192h160c35 0 64 29 64 64v128H160V352c0-35 29-64 64-64h160l64-192zm0 192h128l-32-96h-64l-32 96zM96 544h832v96H96v-96zm96 160h640v160c0 35-29 64-64 64H256c-35 0-64-29-64-64V704zm128 0v128h96V704h-96zm288 0v128h96V704h-96z"/>
	</g>
</svg>
