<svg viewBox="0 0 1050 1024" xmlns="http://www.w3.org/2000/svg">
	<path d="M316 96h392c122 0 220 98 220 220v392c0 122-98 220-220 220H316C194 928 96 830 96 708V316C96 194 194 96 316 96z" fill="#BE185D" opacity="0.12" />
	<circle cx="760" cy="264" r="96" fill="#06B6D4" opacity="0.22" />
	<path d="M266 792c92 56 238 74 370 18 108-46 190-138 220-246" fill="none" stroke="#F9A8D4" stroke-width="54" stroke-linecap="round" opacity="0.28" />
	<g fill="#BE185D" stroke="#BE185D">
		<path
        d="M849.50000027 66.63567869H199.6005028c-66.934673 0-121.20603038 54.27135646-121.20603038 121.20602946V837.74120561c0 66.934673 54.27135646 121.20603038 121.20603038 121.20603039h649.89949747c66.934673 0 121.20603038-54.27135646 121.20602945-121.20603039V187.84170815C970.47989971 120.90703515 916.20854233 66.63567869 849.50000027 66.63567869zM830.95728686 741.63567829h-105.15075447c-17.63819059 36.63316587-54.94974833 62.18592987-98.36683387 62.18592988s-80.72864327-25.32663308-98.36683387-62.18592988h-293.96984972c-25.77889402 0-46.80904491-21.03015089-46.80904492-46.80904491 0-25.77889402 21.03015089-46.80904491 46.80904492-46.80904584h294.19597973c17.63819059-36.63316587 54.94974833-62.18592987 98.36683479-62.18592894s80.72864327 25.32663308 98.36683388 62.18592894H830.95728686c25.77889402 0 46.80904491 21.03015089 46.80904491 46.80904584 0.22613093 26.00502496-20.80401996 46.80904491-46.80904491 46.80904491z m0-364.29648208H522.28894497c-17.63819059 36.63316587-54.94974833 62.18592987-98.36683479 62.18592986s-80.72864327-25.32663308-98.36683387-62.18592986h-90.45226138c-25.77889402 0-46.80904491-21.03015089-46.80904492-46.80904584 0-25.77889402 21.03015089-46.80904491 46.80904492-46.80904491h90.67839232c17.63819059-36.63316587 54.94974833-62.18592987 98.36683386-62.18592988s80.72864327 25.32663308 98.36683388 62.18592988H830.95728686c25.77889402 0 46.80904491 21.03015089 46.80904491 46.80904491 0.22613093 25.77889402-20.80401996 46.80904491-46.80904491 46.80904584z"
        p-id="2763"></path>
	</g>
</svg>
