<svg viewBox="0 0 1024 1024" xmlns="http://www.w3.org/2000/svg">
	<path d="M316 96h392c122 0 220 98 220 220v392c0 122-98 220-220 220H316C194 928 96 830 96 708V316C96 194 194 96 316 96z" fill="#BE185D" opacity="0.12" />
	<circle cx="760" cy="264" r="96" fill="#06B6D4" opacity="0.22" />
	<path d="M266 792c92 56 238 74 370 18 108-46 190-138 220-246" fill="none" stroke="#F9A8D4" stroke-width="54" stroke-linecap="round" opacity="0.28" />
	<g fill="#BE185D" stroke="#BE185D">
		<defs><style type="text/css"></style></defs><path d="M259.2 896a64 64 0 1 0 128 0 64 64 0 1 0-128 0zM768 896a64 64 0 1 0 128 0 64 64 0 1 0-128 0zM940.8 284.8c-16-19.2-38.4-28.8-64-28.8H249.6l-22.4-112c-6.4-44.8-44.8-80-92.8-80H96c-19.2 0-32 16-32 32s12.8 32 32 32h38.4c12.8 0 25.6 9.6 28.8 25.6L192 310.4l51.2 371.2c6.4 48 44.8 86.4 89.6 86.4h486.4c44.8 0 83.2-32 89.6-73.6L960 355.2c3.2-25.6-3.2-51.2-19.2-70.4z" p-id="5113"></path>
	</g>
</svg>
