<svg viewBox="0 0 1024 1024" xmlns="http://www.w3.org/2000/svg">
	<path d="M316 96h392c122 0 220 98 220 220v392c0 122-98 220-220 220H316C194 928 96 830 96 708V316C96 194 194 96 316 96z" fill="#BE185D" opacity="0.12" />
	<circle cx="760" cy="264" r="96" fill="#06B6D4" opacity="0.22" />
	<path d="M266 792c92 56 238 74 370 18 108-46 190-138 220-246" fill="none" stroke="#F9A8D4" stroke-width="54" stroke-linecap="round" opacity="0.28" />
	<g fill="#BE185D" stroke="#BE185D">
		<path d="M858.75132275 229.97559047L604.46701904 82.02835979c-55.48021164-32.36345715-129.45382753-32.36345715-184.93403808 0L165.24867725 229.97559047C123.63851852 253.09234604 95.8984127 299.32585501 95.8984127 350.18271641v328.25791851c0 50.85686031 27.74010582 97.09037037 69.35026455 120.20712486l254.28430371 147.94723176c55.48021164 32.36345715 129.45382753 32.36345715 184.93403808 0l254.28430371-147.94723176c41.61015873-23.11675449 69.35026455-69.35026455 69.35026455-120.20712486V350.18271641c0-50.85686031-27.74010582-97.09037037-69.35026455-120.20712594zM512 650.7005291c-78.59696613 0-138.7005291-60.10356297-138.7005291-138.7005291s60.10356297-138.7005291 138.7005291-138.7005291 138.7005291 60.10356297 138.7005291 138.7005291-60.10356297 138.7005291-138.7005291 138.7005291z" p-id="2789"></path>
	</g>
</svg>
