<svg viewBox="0 0 1024 1024" xmlns="http://www.w3.org/2000/svg">
	<path d="M316 96h392c122 0 220 98 220 220v392c0 122-98 220-220 220H316C194 928 96 830 96 708V316C96 194 194 96 316 96z" fill="#4F46E5" opacity="0.12" />
	<circle cx="760" cy="264" r="96" fill="#10B981" opacity="0.22" />
	<path d="M266 792c92 56 238 74 370 18 108-46 190-138 220-246" fill="none" stroke="#818CF8" stroke-width="54" stroke-linecap="round" opacity="0.28" />
	<g fill="#4F46E5" stroke="#4F46E5">
		<g fill="none" stroke="#4F46E5" stroke-linecap="round" stroke-linejoin="round" stroke-width="66">
		<rect x="112" y="132" rx="92" />
		<path d="M244 312h206M244 464h132M244 616h206" />
		<path d="M612 330l132 132 132-132M744 462v250" />
		<circle cx="744" cy="744" r="54" fill="#4F46E5" stroke="none" />
	</g>
	</g>
</svg>
