<svg viewBox="0 0 1024 1024" xmlns="http://www.w3.org/2000/svg">
	<path d="M316 96h392c122 0 220 98 220 220v392c0 122-98 220-220 220H316C194 928 96 830 96 708V316C96 194 194 96 316 96z" fill="#DC2626" opacity="0.12" />
	<circle cx="760" cy="264" r="96" fill="#FBBF24" opacity="0.22" />
	<path d="M266 792c92 56 238 74 370 18 108-46 190-138 220-246" fill="none" stroke="#FB7185" stroke-width="54" stroke-linecap="round" opacity="0.28" />
	<g fill="#DC2626" stroke="#DC2626">
		<path d="M160 128h704c53 0 96 43 96 96v576c0 53-43 96-96 96H160c-53 0-96-43-96-96V224c0-53 43-96 96-96zm32 128v512h160V256H192zm240 0v512h160V256H432zm240 0v512h160V256H672zM224 320h96v192h-96V320zm240 0h96v96h-96v-96zm240 0h96v256h-96V320z"/>
	</g>
</svg>
