<svg viewBox="0 0 1024 1024" xmlns="http://www.w3.org/2000/svg">
	<path d="M316 96h392c122 0 220 98 220 220v392c0 122-98 220-220 220H316C194 928 96 830 96 708V316C96 194 194 96 316 96z" fill="#65A30D" opacity="0.12" />
	<circle cx="760" cy="264" r="96" fill="#3B82F6" opacity="0.22" />
	<path d="M266 792c92 56 238 74 370 18 108-46 190-138 220-246" fill="none" stroke="#BEF264" stroke-width="54" stroke-linecap="round" opacity="0.28" />
	<g fill="#65A30D" stroke="#65A30D">
		<path d="M512 96c141 0 256 115 256 256 0 192-256 480-256 480S256 544 256 352c0-141 115-256 256-256zm0 352c53 0 96-43 96-96s-43-96-96-96-96 43-96 96 43 96 96 96zM256 736h128l64 96h128l64-96h128l96 192H160l96-192z"/>
	</g>
</svg>
