<svg viewBox="0 0 1024 1024" xmlns="http://www.w3.org/2000/svg">
	<path d="M316 96h392c122 0 220 98 220 220v392c0 122-98 220-220 220H316C194 928 96 830 96 708V316C96 194 194 96 316 96z" fill="#16A34A" opacity="0.12" />
	<circle cx="760" cy="264" r="96" fill="#0EA5E9" opacity="0.22" />
	<path d="M266 792c92 56 238 74 370 18 108-46 190-138 220-246" fill="none" stroke="#86EFAC" stroke-width="54" stroke-linecap="round" opacity="0.28" />
	<g fill="#16A34A" stroke="#16A34A">
		<path d="M512 96c230 0 416 186 416 416S742 928 512 928 96 742 96 512 282 96 512 96zm0 96c-177 0-320 143-320 320s143 320 320 320 320-143 320-320H512V192zm64 0v256h256c-28-133-123-228-256-256z"/>
	</g>
</svg>
