<svg viewBox="0 0 1024 1024" xmlns="http://www.w3.org/2000/svg">
	<path d="M316 96h392c122 0 220 98 220 220v392c0 122-98 220-220 220H316C194 928 96 830 96 708V316C96 194 194 96 316 96z" fill="#0284C7" opacity="0.12" />
	<circle cx="760" cy="264" r="96" fill="#84CC16" opacity="0.22" />
	<path d="M266 792c92 56 238 74 370 18 108-46 190-138 220-246" fill="none" stroke="#7DD3FC" stroke-width="54" stroke-linecap="round" opacity="0.28" />
	<g fill="#0284C7" stroke="#0284C7">
		<path d="M512 96 864 288v448L512 928 160 736V288L512 96zm0 110L288 328l224 122 224-122-224-122zM256 408v272l224 122V530L256 408zm512 0L544 530v272l224-122V408zM512 384l128 70-128 70-128-70 128-70z"/>
	</g>
</svg>
