<svg viewBox="0 0 1024 1024" xmlns="http://www.w3.org/2000/svg">
	<path d="M316 96h392c122 0 220 98 220 220v392c0 122-98 220-220 220H316C194 928 96 830 96 708V316C96 194 194 96 316 96z" fill="#EA580C" opacity="0.12" />
	<circle cx="760" cy="264" r="96" fill="#14B8A6" opacity="0.22" />
	<path d="M266 792c92 56 238 74 370 18 108-46 190-138 220-246" fill="none" stroke="#FDBA74" stroke-width="54" stroke-linecap="round" opacity="0.28" />
	<g fill="#EA580C" stroke="#EA580C">
		<g fill="none" stroke="#EA580C" stroke-linecap="round" stroke-linejoin="round" stroke-width="70">
		<path d="M512 106l74 212 218 74-218 74-74 452-74-452-218-74 218-74 74-212z" />
		<path d="M196 142l32 86 86 32-86 32-32 86-32-86-86-32 86-32 32-86zM826 610l28 76 76 28-76 28-28 76-28-76-76-28 76-28 28-76z" />
	</g>
	</g>
</svg>
