<svg viewBox="0 0 1024 1024" xmlns="http://www.w3.org/2000/svg">
	<path d="M316 96h392c122 0 220 98 220 220v392c0 122-98 220-220 220H316C194 928 96 830 96 708V316C96 194 194 96 316 96z" fill="#2563EB" opacity="0.12" />
	<circle cx="760" cy="264" r="96" fill="#F59E0B" opacity="0.22" />
	<path d="M266 792c92 56 238 74 370 18 108-46 190-138 220-246" fill="none" stroke="#38BDF8" stroke-width="54" stroke-linecap="round" opacity="0.28" />
	<g fill="#2563EB" stroke="#2563EB">
		<g fill="none" stroke="#2563EB" stroke-linecap="round" stroke-linejoin="round" stroke-width="66">
		<path d="M242 112h404l164 164v636H242a72 72 0 0 1-72-72V184a72 72 0 0 1 72-72z" />
		<path d="M646 112v164h164M314 398h396M314 544h396M314 690h244" />
		<path d="M318 822h1M454 822h1M590 822h1" />
	</g>
	</g>
</svg>
