<svg viewBox="0 0 1126 1024" xmlns="http://www.w3.org/2000/svg">
	<path d="M316 96h392c122 0 220 98 220 220v392c0 122-98 220-220 220H316C194 928 96 830 96 708V316C96 194 194 96 316 96z" fill="#7C3AED" opacity="0.12" />
	<circle cx="760" cy="264" r="96" fill="#22C55E" opacity="0.22" />
	<path d="M266 792c92 56 238 74 370 18 108-46 190-138 220-246" fill="none" stroke="#A78BFA" stroke-width="54" stroke-linecap="round" opacity="0.28" />
	<g fill="#7C3AED" stroke="#7C3AED">
		<path d="M805.26228974 886.75074491h-487.2651379a34.5515279 34.5515279 0 0 0-34.81730827 34.10855913 34.5515279 34.5515279 0 0 0 34.81730827 34.10856001h487.2651379a34.5515279 34.5515279 0 0 0 34.81730917-34.10856001 34.5515279 34.5515279 0 0 0-34.81730917-34.01996539zM909.71421632 69.03124999H213.45663153C137.00030229 69.03124999 74.36458334 130.33806357 74.36458334 205.28830167v442.96830702c0 75.03883099 62.63571895 136.34564454 139.18064195 136.34564458H909.80281006c76.54492386 0 139.18064194-61.30681357 139.18064199-136.34564458v-442.96830702C1048.89485915 130.33806357 986.25914018 69.03124999 909.71421632 69.03124999zM631.26433866 546.10811705a34.5515279 34.5515279 0 0 1-34.81730827 34.01996539H317.99715184a34.5515279 34.5515279 0 0 1-34.81730827-34.01996539A34.5515279 34.5515279 0 0 1 317.99715184 511.99955702h278.44987855a34.5515279 34.5515279 0 0 1 34.81730827 34.10856003z m208.81526025-238.58273084a34.5515279 34.5515279 0 0 1-34.81730917 34.10856002h-487.2651379a34.5515279 34.5515279 0 0 1-34.81730827-34.10856002 34.5515279 34.5515279 0 0 1 34.81730827-34.0199654h487.2651379a34.5515279 34.5515279 0 0 1 34.81730917 34.0199654z" p-id="2729"></path>
	</g>
</svg>
