<svg viewBox="0 0 1024 1024" xmlns="http://www.w3.org/2000/svg">
	<path d="M316 96h392c122 0 220 98 220 220v392c0 122-98 220-220 220H316C194 928 96 830 96 708V316C96 194 194 96 316 96z" fill="#EA580C" opacity="0.12" />
	<circle cx="760" cy="264" r="96" fill="#14B8A6" opacity="0.22" />
	<path d="M266 792c92 56 238 74 370 18 108-46 190-138 220-246" fill="none" stroke="#FDBA74" stroke-width="54" stroke-linecap="round" opacity="0.28" />
	<g fill="#EA580C" stroke="#EA580C">
		<path d="M760.59989333 606.7602011a74.07995221 74.07995221 0 0 1 84.95407446 14.66064669l81.99281778 82.0413622c19.6608 19.61225443 27.1367589 49.4189989 16.55390776 74.61395001C703.80202667 1350.66661888-326.66661888 320.2465189 245.97238557 79.89930667c25.24349667-10.58284999 55.00169443-3.10689223 74.66249443 16.55390776l82.04136334 82.04136335c22.52496555 22.57351111 28.4474789 56.79786667 14.61209999 84.90552889l-78.44901888 159.47093333 262.33818112 262.33818112 159.47093333-78.44902002z" p-id="3104"></path>
	</g>
</svg>
