<svg viewBox="0 0 1024 1024" xmlns="http://www.w3.org/2000/svg">
	<path d="M316 96h392c122 0 220 98 220 220v392c0 122-98 220-220 220H316C194 928 96 830 96 708V316C96 194 194 96 316 96z" fill="#7C3AED" opacity="0.12" />
	<circle cx="760" cy="264" r="96" fill="#22C55E" opacity="0.22" />
	<path d="M266 792c92 56 238 74 370 18 108-46 190-138 220-246" fill="none" stroke="#A78BFA" stroke-width="54" stroke-linecap="round" opacity="0.28" />
	<g fill="#7C3AED" stroke="#7C3AED">
		<path d="M830.39 129.61A222.53 222.53 0 0 0 672 64H352a224 224 0 0 0-224 224v448a224 224 0 0 0 224 224h320a224 224 0 0 0 224-224V288a222.53 222.53 0 0 0-65.61-158.39zM512 736a32 32 0 0 1-32 32H352a32 32 0 0 1-32-32 32 32 0 0 1 32-32h128a32 32 0 0 1 32 32z m192-192a32 32 0 0 1-32 32H352a32 32 0 0 1-32-32 32 32 0 0 1 32-32h320a32 32 0 0 1 32 32z m0-192a32 32 0 0 1-32 32H352a32 32 0 0 1-32-32 32 32 0 0 1 32-32h320a32 32 0 0 1 32 32z" p-id="5606"></path>
	</g>
</svg>
