<svg viewBox="0 0 1024 1024" xmlns="http://www.w3.org/2000/svg">
	<path d="M316 96h392c122 0 220 98 220 220v392c0 122-98 220-220 220H316C194 928 96 830 96 708V316C96 194 194 96 316 96z" fill="#EA580C" opacity="0.12" />
	<circle cx="760" cy="264" r="96" fill="#14B8A6" opacity="0.22" />
	<path d="M266 792c92 56 238 74 370 18 108-46 190-138 220-246" fill="none" stroke="#FDBA74" stroke-width="54" stroke-linecap="round" opacity="0.28" />
	<g fill="#EA580C" stroke="#EA580C">
		<path
		d="M853.333333 85.333333H170.666667a86.570667 86.570667 0 0 0-85.333334 85.333334v682.666666a85.717333 85.717333 0 0 0 85.333334 85.333334h682.666666a86.186667 86.186667 0 0 0 85.333334-85.333334V170.666667a85.333333 85.333333 0 0 0-85.333334-85.333334zM170.666667 853.333333V170.666667h682.666666v682.666666z"
		p-id="3044"
	></path>
	<path
		d="M387.2 379.733333a61.781333 61.781333 0 0 1 61.781333-61.781333h19.114667a30.890667 30.890667 0 0 0 0-61.781333h-19.114667a123.733333 123.733333 0 0 0-123.733333 123.733333v304.512a30.890667 30.890667 0 1 0 61.781333 0z"
		p-id="3045"
	></path>
	<path
		d="M261.76 429.610667h217.728a27.392 27.392 0 0 1 31.146667 30.890666 27.392 27.392 0 0 1-31.146667 30.890667h-217.6a27.434667 27.434667 0 0 1-31.146667-30.890667 27.392 27.392 0 0 1 31.146667-30.890666z"
		p-id="3046"
	></path>
	<path
		d="M737.322667 331.008a30.890667 30.890667 0 0 0-26.88 15.445333l-61.781334 108.117334-61.781333-108.117334a30.890667 30.890667 0 1 0-53.461333 30.890667l80.341333 139.008-80.341333 139.008a30.890667 30.890667 0 1 0 53.461333 30.890667l61.781333-108.117334 61.781334 108.117334a30.890667 30.890667 0 1 0 53.461333-30.890667l-80.341333-139.008 80.341333-139.008a30.890667 30.890667 0 0 0-26.581333-46.336z"
		p-id="3047"
	></path>
	</g>
</svg>
