<svg viewBox="0 0 1024 1024" xmlns="http://www.w3.org/2000/svg">
	<path d="M316 96h392c122 0 220 98 220 220v392c0 122-98 220-220 220H316C194 928 96 830 96 708V316C96 194 194 96 316 96z" fill="#BE185D" opacity="0.12" />
	<circle cx="760" cy="264" r="96" fill="#06B6D4" opacity="0.22" />
	<path d="M266 792c92 56 238 74 370 18 108-46 190-138 220-246" fill="none" stroke="#F9A8D4" stroke-width="54" stroke-linecap="round" opacity="0.28" />
	<g fill="#BE185D" stroke="#BE185D">
		<path d="M128 192h320c35 0 64 29 64 64v608c0-35-29-64-64-64H128c-35 0-64-29-64-64V256c0-35 29-64 64-64zM576 256c0-35 29-64 64-64h256c35 0 64 29 64 64v480c0 35-29 64-64 64H640c-35 0-64 29-64 64V256zM176 336h224v64H176v-64zm0 128h224v64H176v-64zm448-128h224v64H624v-64zm0 128h224v64H624v-64z"/>
	</g>
</svg>
