<svg viewBox="0 0 1024 1024" xmlns="http://www.w3.org/2000/svg">
	<path d="M316 96h392c122 0 220 98 220 220v392c0 122-98 220-220 220H316C194 928 96 830 96 708V316C96 194 194 96 316 96z" fill="#0284C7" opacity="0.12" />
	<circle cx="760" cy="264" r="96" fill="#84CC16" opacity="0.22" />
	<path d="M266 792c92 56 238 74 370 18 108-46 190-138 220-246" fill="none" stroke="#7DD3FC" stroke-width="54" stroke-linecap="round" opacity="0.28" />
	<g fill="#0284C7" stroke="#0284C7">
		<defs><style type="text/css"></style></defs><path d="M722 136c-61.83 0-120.54 23.46-165.36 66.06-4.29 4.05-26.88 26.94-44.37 44.7L467.9 202.6C423.05 159.64 364.13 136 302 136 169.67 136 62 243.67 62 376c0 77.28 38.61 135.27 71.7 171.09l297.09 300.12C454.31 870.7 480.41 886 512 886s57.72-15.3 81.33-38.91l296.94-300 2.07-2.31C928.16 500.11 962 457.93 962 376c0-132.33-107.67-240-240-240z" p-id="10859"></path>
	</g>
</svg>
