<svg viewBox="0 0 1024 1024" xmlns="http://www.w3.org/2000/svg">
	<path d="M316 96h392c122 0 220 98 220 220v392c0 122-98 220-220 220H316C194 928 96 830 96 708V316C96 194 194 96 316 96z" fill="#7C3AED" opacity="0.12" />
	<circle cx="760" cy="264" r="96" fill="#22C55E" opacity="0.22" />
	<path d="M266 792c92 56 238 74 370 18 108-46 190-138 220-246" fill="none" stroke="#A78BFA" stroke-width="54" stroke-linecap="round" opacity="0.28" />
	<g fill="#7C3AED" stroke="#7C3AED">
		<path d="M512 62.27187463c-221.08799963 0-399.84000037 169.344-399.84000037 381.024s216.38400037 418.65599963 333.98400074 484.51200036c42.336 23.51999963 94.07999963 23.51999963 136.41599963 0 112.89600001-65.85599963 333.98399962-221.08799963 333.98399963-484.51200036S733.08799963 62.27187463 512 62.27187463z m0 550.36799999c-84.672 0-150.52799963-65.85599963-150.52799963-150.52799963s65.85599963-150.52799963 150.52799963-150.52799962 150.52799963 65.85599963 150.52799963 150.52799962-65.85599963 150.52799963-150.52799963 150.52799963z" p-id="2729"></path>
	</g>
</svg>
