<svg viewBox="0 0 1024 1024" xmlns="http://www.w3.org/2000/svg">
	<path d="M316 96h392c122 0 220 98 220 220v392c0 122-98 220-220 220H316C194 928 96 830 96 708V316C96 194 194 96 316 96z" fill="#EA580C" opacity="0.12" />
	<circle cx="760" cy="264" r="96" fill="#14B8A6" opacity="0.22" />
	<path d="M266 792c92 56 238 74 370 18 108-46 190-138 220-246" fill="none" stroke="#FDBA74" stroke-width="54" stroke-linecap="round" opacity="0.28" />
	<g fill="#EA580C" stroke="#EA580C">
		<g fill="none" stroke="#EA580C" stroke-linecap="round" stroke-linejoin="round" stroke-width="66">
		<rect x="126" y="134" rx="92" />
		<path d="M126 340h772M364 340v550" />
		<rect x="224" y="460" rx="18" />
		<path d="M464 486h270M464 636h270M464 786h170" />
	</g>
	</g>
</svg>
