<svg viewBox="0 0 1024 1024" xmlns="http://www.w3.org/2000/svg">
	<path d="M316 96h392c122 0 220 98 220 220v392c0 122-98 220-220 220H316C194 928 96 830 96 708V316C96 194 194 96 316 96z" fill="#16A34A" opacity="0.12" />
	<circle cx="760" cy="264" r="96" fill="#0EA5E9" opacity="0.22" />
	<path d="M266 792c92 56 238 74 370 18 108-46 190-138 220-246" fill="none" stroke="#86EFAC" stroke-width="54" stroke-linecap="round" opacity="0.28" />
	<g fill="#16A34A" stroke="#16A34A">
		<defs><style type="text/css"></style></defs><path d="M509.27 62.598c-248.668 0-450.254 199.753-450.254 446.161s201.586 446.162 450.255 446.162 450.255-199.754 450.255-446.162S757.939 62.598 509.27 62.598z m0 148.72c55.666 0 107.78 15.033 152.468 41.2L250.676 659.842c-26.404-44.281-41.575-95.922-41.575-151.084 0-164.27 134.386-297.441 300.17-297.441z m0 594.883c-55.666 0-107.78-15.033-152.469-41.198l411.062-407.326C794.27 401.96 809.44 453.6 809.44 508.76c0 164.277-134.394 297.442-300.17 297.442z" p-id="10018"></path>
	</g>
</svg>
