<svg viewBox="0 0 1024 1024" xmlns="http://www.w3.org/2000/svg">
	<path d="M316 96h392c122 0 220 98 220 220v392c0 122-98 220-220 220H316C194 928 96 830 96 708V316C96 194 194 96 316 96z" fill="#2563EB" opacity="0.12" />
	<circle cx="760" cy="264" r="96" fill="#F59E0B" opacity="0.22" />
	<path d="M266 792c92 56 238 74 370 18 108-46 190-138 220-246" fill="none" stroke="#38BDF8" stroke-width="54" stroke-linecap="round" opacity="0.28" />
	<g fill="#2563EB" stroke="#2563EB">
		<path
        d="M471.99999969 471.99999969c88.00000031 0 160.00000031 72 160.00000031 160.00000031v199.99999969c0 43.99999969-36 79.99999969-79.99999969 80.00000062H152c-43.99999969 0-79.99999969-36-79.99999969-80.00000062v-199.99999969c0-88.00000031 72-160.00000031 159.99999938-160.00000031h240zM692 552.00000031H792.00000031c88.00000031 0 160.00000031 72 159.99999938 159.99999938v120c0 43.99999969-36 79.99999969-79.99999969 80.00000062h-160.00000031v-280.00000031c0-28.00000031-7.99999969-55.99999969-19.99999969-79.99999969zM720.00000031 272c67.99999969 0 120 52.00000031 120 120s-52.00000031 120-120 120-120-52.00000031-120-120 55.99999969-120 120-120zM351.99999969 111.99999969c88.00000031 0 160.00000031 72 160.00000031 160.00000031s-72 160.00000031-160.00000031 160.00000031-160.00000031-72-159.99999938-160.00000031 72-160.00000031 159.99999938-160.00000031z"
        p-id="1887"></path>
	</g>
</svg>
