<svg viewBox="0 0 1024 1024" xmlns="http://www.w3.org/2000/svg">
	<path d="M316 96h392c122 0 220 98 220 220v392c0 122-98 220-220 220H316C194 928 96 830 96 708V316C96 194 194 96 316 96z" fill="#9333EA" opacity="0.12" />
	<circle cx="760" cy="264" r="96" fill="#F97316" opacity="0.22" />
	<path d="M266 792c92 56 238 74 370 18 108-46 190-138 220-246" fill="none" stroke="#C084FC" stroke-width="54" stroke-linecap="round" opacity="0.28" />
	<g fill="#9333EA" stroke="#9333EA">
		<path d="M192 128h640c53 0 96 43 96 96v448c0 53-43 96-96 96H192c-53 0-96-43-96-96V224c0-53 43-96 96-96zm96 160v64h448v-64H288zm0 128v64h256v-64H288zm496 96c0 71-57 128-128 128s-128-57-128-128 57-128 128-128 128 57 128 128zM544 704l-64 224 176-80 176 80-64-224c-32 20-70 32-112 32s-80-12-112-32z"/>
	</g>
</svg>
