<svg viewBox="0 0 1137 1024" xmlns="http://www.w3.org/2000/svg">
	<path d="M316 96h392c122 0 220 98 220 220v392c0 122-98 220-220 220H316C194 928 96 830 96 708V316C96 194 194 96 316 96z" fill="#0891B2" opacity="0.12" />
	<circle cx="760" cy="264" r="96" fill="#F97316" opacity="0.22" />
	<path d="M266 792c92 56 238 74 370 18 108-46 190-138 220-246" fill="none" stroke="#67E8F9" stroke-width="54" stroke-linecap="round" opacity="0.28" />
	<g fill="#0891B2" stroke="#0891B2">
		<path d="M1047.68 852.32c0 61.92-49.92 111.84-111.84 111.84H196.16c-61.92 0-111.84-49.92-111.84-111.84V434.24h963.36v418.08zM219.2 519.2c-24.96 0-45.12 20.16-45.12 45.12s20.16 45.12 45.12 45.12h331.2c24.96 0 45.12-20.16 45.12-45.12s-20.16-45.12-45.12-45.12H219.2z m0 150.24c-24.96 0-45.12 20.16-45.12 45.12s20.16 45.12 45.12 45.12h572.64c24.96 0 45.12-20.16 45.12-45.12s-20.16-45.12-45.12-45.12H219.2z m828-327.36H84.32v-105.6c0-61.92 50.4-111.84 112.8-111.84h56.64c0-47.52 38.88-85.92 86.88-85.92 48 0 86.88 38.4 86.88 85.92h280.32c0-47.52 38.88-85.92 86.88-85.92 48 0 86.88 38.4 86.88 85.92h56.16c62.4 0 109.92 49.92 109.92 111.84v105.6z" p-id="2789"></path>
	</g>
</svg>
