<svg viewBox="0 0 1024 1024" xmlns="http://www.w3.org/2000/svg">
	<path d="M316 96h392c122 0 220 98 220 220v392c0 122-98 220-220 220H316C194 928 96 830 96 708V316C96 194 194 96 316 96z" fill="#0891B2" opacity="0.12" />
	<circle cx="760" cy="264" r="96" fill="#F97316" opacity="0.22" />
	<path d="M266 792c92 56 238 74 370 18 108-46 190-138 220-246" fill="none" stroke="#67E8F9" stroke-width="54" stroke-linecap="round" opacity="0.28" />
	<g fill="#0891B2" stroke="#0891B2">
		<defs><style type="text/css"></style></defs><path d="M867.2 160H160c-54.4 0-96 44.8-96 96v512c0 54.4 41.6 96 96 96h707.2c54.4 0 96-41.6 96-96V256c0-51.2-41.6-96-96-96z m-672 163.2c0-19.2 12.8-32 32-32H416c19.2 0 32 12.8 32 32V512c0 19.2-12.8 32-32 32H227.2c-19.2 0-32-12.8-32-32V323.2zM800 736H224c-19.2 0-32-12.8-32-32s12.8-32 32-32h576c19.2 0 32 12.8 32 32s-12.8 32-32 32zM512 448c0-19.2 12.8-32 32-32h128c19.2 0 32 12.8 32 32s-12.8 32-32 32H544c-19.2 0-32-12.8-32-32z m288-96H544c-19.2 0-32-12.8-32-32s12.8-32 32-32h256c19.2 0 32 12.8 32 32s-12.8 32-32 32z" p-id="5956"></path>
	</g>
</svg>
