<svg viewBox="0 0 1024 1024" xmlns="http://www.w3.org/2000/svg">
	<path d="M316 96h392c122 0 220 98 220 220v392c0 122-98 220-220 220H316C194 928 96 830 96 708V316C96 194 194 96 316 96z" fill="#BE185D" opacity="0.12" />
	<circle cx="760" cy="264" r="96" fill="#06B6D4" opacity="0.22" />
	<path d="M266 792c92 56 238 74 370 18 108-46 190-138 220-246" fill="none" stroke="#F9A8D4" stroke-width="54" stroke-linecap="round" opacity="0.28" />
	<g fill="#BE185D" stroke="#BE185D">
		<defs><style type="text/css"></style></defs><path d="M512 64C264.96 64 64 264.96 64 512s200.96 448 448 448 448-200.96 448-448S759.04 64 512 64z m159.264 512H480.16c-17.664 0-32.16-14.464-32.16-32.16V289.088c0-17.664 14.336-32 32-32s32 14.336 32 32V512h159.264c17.696 0 32 14.336 32 32 0 17.696-14.336 32-32 32z" p-id="6797"></path>
	</g>
</svg>
