<svg viewBox="0 0 1024 1024" xmlns="http://www.w3.org/2000/svg">
	<path d="M316 96h392c122 0 220 98 220 220v392c0 122-98 220-220 220H316C194 928 96 830 96 708V316C96 194 194 96 316 96z" fill="#4F46E5" opacity="0.12" />
	<circle cx="760" cy="264" r="96" fill="#10B981" opacity="0.22" />
	<path d="M266 792c92 56 238 74 370 18 108-46 190-138 220-246" fill="none" stroke="#818CF8" stroke-width="54" stroke-linecap="round" opacity="0.28" />
	<g fill="#4F46E5" stroke="#4F46E5">
		<path d="M598.32603476 112.7773127a140.9021248 140.9021248 0 0 1 133.6691498 96.33008672L746.8368743 253.67943749h93.9347506A117.4184377 117.4184377 0 0 1 958.1900615 371.0978752v352.255312a187.8695001 187.8695001 0 0 1-187.86949899 187.8695001h-516.64112502a187.8695001 187.8695001 0 0 1-187.86949899-187.8695001V371.0978752A117.4184377 117.4184377 0 0 1 183.2283751 253.67943749h93.9347506l14.84168974-44.57203807A140.9021248 140.9021248 0 0 1 425.67396524 112.7773127h172.65206952zM512 723.3531872a164.3858119 164.3858119 0 1 0 0-328.7716249 164.3858119 164.3858119 0 0 0 0 328.7716249z" p-id="2789"></path>
	</g>
</svg>
