<svg viewBox="0 0 1024 1024" xmlns="http://www.w3.org/2000/svg">
	<path d="M316 96h392c122 0 220 98 220 220v392c0 122-98 220-220 220H316C194 928 96 830 96 708V316C96 194 194 96 316 96z" fill="#7C3AED" opacity="0.12" />
	<circle cx="760" cy="264" r="96" fill="#22C55E" opacity="0.22" />
	<path d="M266 792c92 56 238 74 370 18 108-46 190-138 220-246" fill="none" stroke="#A78BFA" stroke-width="54" stroke-linecap="round" opacity="0.28" />
	<g fill="#7C3AED" stroke="#7C3AED">
		<path d="M320 96h384c53 0 96 43 96 96v640c0 53-43 96-96 96H320c-53 0-96-43-96-96V192c0-53 43-96 96-96zm64 96v96h256v-96H384zm0 256h256v-64H384v64zm0 128h192v-64H384v64zm353 45-45-45-116 116-52-52-45 45 97 97 161-161zM160 256h64v448h-64c-35 0-64-29-64-64V320c0-35 29-64 64-64z"/>
	</g>
</svg>
