<svg viewBox="0 0 1024 1024" xmlns="http://www.w3.org/2000/svg">
	<path d="M316 96h392c122 0 220 98 220 220v392c0 122-98 220-220 220H316C194 928 96 830 96 708V316C96 194 194 96 316 96z" fill="#DC2626" opacity="0.12" />
	<circle cx="760" cy="264" r="96" fill="#FBBF24" opacity="0.22" />
	<path d="M266 792c92 56 238 74 370 18 108-46 190-138 220-246" fill="none" stroke="#FB7185" stroke-width="54" stroke-linecap="round" opacity="0.28" />
	<g fill="#DC2626" stroke="#DC2626">
		<g fill="none" stroke="#DC2626" stroke-linecap="round" stroke-linejoin="round" stroke-width="66">
		<rect x="188" y="190" rx="104" />
		<rect x="336" y="338" rx="72" />
		<path d="M336 106v84M512 106v84M688 106v84M336 838v84M512 838v84M688 838v84M104 336h84M104 512h84M104 688h84M836 336h84M836 512h84M836 688h84" />
	</g>
	</g>
</svg>
