<svg viewBox="0 0 1024 1024" xmlns="http://www.w3.org/2000/svg">
	<path d="M316 96h392c122 0 220 98 220 220v392c0 122-98 220-220 220H316C194 928 96 830 96 708V316C96 194 194 96 316 96z" fill="#2563EB" opacity="0.12" />
	<circle cx="760" cy="264" r="96" fill="#F59E0B" opacity="0.22" />
	<path d="M266 792c92 56 238 74 370 18 108-46 190-138 220-246" fill="none" stroke="#38BDF8" stroke-width="54" stroke-linecap="round" opacity="0.28" />
	<g fill="#2563EB" stroke="#2563EB">
		<path d="M192 128h640c53 0 96 43 96 96v416c0 53-43 96-96 96H512L320 896V736H192c-53 0-96-43-96-96V224c0-53 43-96 96-96zm160 192c-35 0-64 29-64 64s29 64 64 64 64-29 64-64-29-64-64-64zm160 0c-35 0-64 29-64 64s29 64 64 64 64-29 64-64-29-64-64-64zm160 0c-35 0-64 29-64 64s29 64 64 64 64-29 64-64-29-64-64-64zM304 544v64h416v-64H304z"/>
	</g>
</svg>
