<svg viewBox="0 0 1024 1024" xmlns="http://www.w3.org/2000/svg">
	<path d="M316 96h392c122 0 220 98 220 220v392c0 122-98 220-220 220H316C194 928 96 830 96 708V316C96 194 194 96 316 96z" fill="#0F766E" opacity="0.12" />
	<circle cx="760" cy="264" r="96" fill="#EAB308" opacity="0.22" />
	<path d="M266 792c92 56 238 74 370 18 108-46 190-138 220-246" fill="none" stroke="#5EEAD4" stroke-width="54" stroke-linecap="round" opacity="0.28" />
	<g fill="#0F766E" stroke="#0F766E">
		<g fill="none" stroke="#0F766E" stroke-linecap="round" stroke-linejoin="round" stroke-width="66">
		<rect x="116" y="148" rx="92" />
		<path d="M238 326h190M238 478h190M238 630h118" />
		<path d="M650 340l48 132 132 48-132 48-48 132-48-132-132-48 132-48 48-132z" />
		<circle cx="250" cy="744" r="22" fill="#0F766E" stroke="none" />
		<circle cx="346" cy="744" r="22" fill="#0F766E" stroke="none" />
		<circle cx="442" cy="744" r="22" fill="#0F766E" stroke="none" />
	</g>
	</g>
</svg>
