<svg viewBox="0 0 1024 1024" xmlns="http://www.w3.org/2000/svg">
	<path d="M316 96h392c122 0 220 98 220 220v392c0 122-98 220-220 220H316C194 928 96 830 96 708V316C96 194 194 96 316 96z" fill="#0891B2" opacity="0.12" />
	<circle cx="760" cy="264" r="96" fill="#F97316" opacity="0.22" />
	<path d="M266 792c92 56 238 74 370 18 108-46 190-138 220-246" fill="none" stroke="#67E8F9" stroke-width="54" stroke-linecap="round" opacity="0.28" />
	<g fill="#0891B2" stroke="#0891B2">
		<g fill="none" stroke="#0891B2" stroke-linecap="round" stroke-linejoin="round" stroke-width="66">
		<circle cx="404" cy="330" r="142" />
		<path d="M164 846c28-154 128-250 240-250s212 96 240 250H164z" />
		<path d="M674 240h184M674 392h118M698 600h160M698 744h96" />
	</g>
	</g>
</svg>
