<svg viewBox="0 0 1024 1024" xmlns="http://www.w3.org/2000/svg">
	<path d="M316 96h392c122 0 220 98 220 220v392c0 122-98 220-220 220H316C194 928 96 830 96 708V316C96 194 194 96 316 96z" fill="#BE185D" opacity="0.12" />
	<circle cx="760" cy="264" r="96" fill="#06B6D4" opacity="0.22" />
	<path d="M266 792c92 56 238 74 370 18 108-46 190-138 220-246" fill="none" stroke="#F9A8D4" stroke-width="54" stroke-linecap="round" opacity="0.28" />
	<g fill="#BE185D" stroke="#BE185D">
		<path d="M448.71875012 258.87499963a189.84374963 189.84374963 0 1 1-379.68750012 0 189.84374963 189.84374963 0 0 1 379.68750012 0z m506.24999988 0a189.84374963 189.84374963 0 1 1-379.68750012 0 189.84374963 189.84374963 0 0 1 379.68750012 0zM258.87499963 954.96875a189.84374963 189.84374963 0 1 0 0-379.68750012 189.84374963 189.84374963 0 0 0 0 379.68750012z m696.09375037-189.84374963a189.84374963 189.84374963 0 1 1-379.68750012 0 189.84374963 189.84374963 0 0 1 379.68750012 0z" p-id="3103"></path>
	</g>
</svg>
