<svg viewBox="0 0 1024 1024" xmlns="http://www.w3.org/2000/svg">
	<path d="M316 96h392c122 0 220 98 220 220v392c0 122-98 220-220 220H316C194 928 96 830 96 708V316C96 194 194 96 316 96z" fill="#EA580C" opacity="0.12" />
	<circle cx="760" cy="264" r="96" fill="#14B8A6" opacity="0.22" />
	<path d="M266 792c92 56 238 74 370 18 108-46 190-138 220-246" fill="none" stroke="#FDBA74" stroke-width="54" stroke-linecap="round" opacity="0.28" />
	<g fill="#EA580C" stroke="#EA580C">
		<path d="M192 128h512c71 0 128 57 128 128v576c0 35-29 64-64 64H224c-71 0-128-57-128-128V224c0-53 43-96 96-96zm0 640c0 35 29 64 64 64h512v-96H256c-35 0-64 29-64 64zm96-448h352v64H288v-64zm0 128h352v64H288v-64zm448-224h96c53 0 96 43 96 96v480h-64V320c0-18-14-32-32-32h-96v-64z"/>
	</g>
</svg>
