<svg viewBox="0 0 1024 1024" xmlns="http://www.w3.org/2000/svg">
	<path d="M316 96h392c122 0 220 98 220 220v392c0 122-98 220-220 220H316C194 928 96 830 96 708V316C96 194 194 96 316 96z" fill="#EA580C" opacity="0.12" />
	<circle cx="760" cy="264" r="96" fill="#14B8A6" opacity="0.22" />
	<path d="M266 792c92 56 238 74 370 18 108-46 190-138 220-246" fill="none" stroke="#FDBA74" stroke-width="54" stroke-linecap="round" opacity="0.28" />
	<g fill="#EA580C" stroke="#EA580C">
		<g fill="none" stroke="#EA580C" stroke-linecap="round" stroke-linejoin="round" stroke-width="72">
		<rect x="120" y="170" rx="92" />
		<path d="M252 380l124 132-124 132M450 650h320" />
		<path d="M250 258h1M374 258h1M498 258h1" />
	</g>
	</g>
</svg>
