<svg viewBox="0 0 1024 1024" xmlns="http://www.w3.org/2000/svg">
	<path d="M316 96h392c122 0 220 98 220 220v392c0 122-98 220-220 220H316C194 928 96 830 96 708V316C96 194 194 96 316 96z" fill="#65A30D" opacity="0.12" />
	<circle cx="760" cy="264" r="96" fill="#3B82F6" opacity="0.22" />
	<path d="M266 792c92 56 238 74 370 18 108-46 190-138 220-246" fill="none" stroke="#BEF264" stroke-width="54" stroke-linecap="round" opacity="0.28" />
	<g fill="#65A30D" stroke="#65A30D">
		<path
        d="M184.203125 921.5h655.59375v-62.60625H184.203125V921.5zM867.1625 102.5H156.8375C109.4890625 102.5 71 141.0875 71 188.534375v438.1453125c0 47.446875 38.4890625 86.034375 85.8375 86.034375h710.325c47.3484375 0 85.8375-38.5875 85.8375-86.034375V188.534375c0-47.446875-38.4890625-86.034375-85.8375-86.034375zM909.6875 493.690625H658.475l-94.10625-153.365625-185.3578125 252.0984375-98.5359375-98.7328125H133.015625v-62.60625h173.3484375l65.4609375 65.559375L568.9953125 228.5l124.425 202.584375H909.6875v62.60625z"
        p-id="1737"></path>
	</g>
</svg>
