<svg viewBox="0 0 1024 1024" xmlns="http://www.w3.org/2000/svg">
	<path d="M316 96h392c122 0 220 98 220 220v392c0 122-98 220-220 220H316C194 928 96 830 96 708V316C96 194 194 96 316 96z" fill="#4F46E5" opacity="0.12" />
	<circle cx="760" cy="264" r="96" fill="#10B981" opacity="0.22" />
	<path d="M266 792c92 56 238 74 370 18 108-46 190-138 220-246" fill="none" stroke="#818CF8" stroke-width="54" stroke-linecap="round" opacity="0.28" />
	<g fill="#4F46E5" stroke="#4F46E5">
		<g fill="none" stroke="#4F46E5" stroke-linecap="round" stroke-linejoin="round" stroke-width="68">
		<rect x="116" y="226" rx="88" />
		<path d="M716 398l190-116v408L716 574" />
		<path d="M394 378l34 86 86 34-86 34-34 86-34-86-86-34 86-34 34-86z" />
		<path d="M210 824h420" />
	</g>
	</g>
</svg>
