<svg viewBox="0 0 1024 1024" xmlns="http://www.w3.org/2000/svg">
	<path d="M316 96h392c122 0 220 98 220 220v392c0 122-98 220-220 220H316C194 928 96 830 96 708V316C96 194 194 96 316 96z" fill="#DC2626" opacity="0.12" />
	<circle cx="760" cy="264" r="96" fill="#FBBF24" opacity="0.22" />
	<path d="M266 792c92 56 238 74 370 18 108-46 190-138 220-246" fill="none" stroke="#FB7185" stroke-width="54" stroke-linecap="round" opacity="0.28" />
	<g fill="#DC2626" stroke="#DC2626">
		<defs><style type="text/css"></style></defs><path d="M517.46416016 442.25V126.28583984A64.28583984 64.28583984 0 0 1 592.35839844 62.96416016a450 450 0 0 1 368.67832031 368.67832031 64.28583984 64.28583984 0 0 1-63.32167969 74.89335937H581.75a64.28583984 64.28583984 0 0 1-64.28583984-64.28583984z m-21.53583985 117.96416016h299.08916016a64.28583984 64.28583984 0 0 1 64.28583984 75.21416015A401.78583984 401.78583984 0 1 1 388.57167969 165.5a64.28583984 64.28583984 0 0 1 75.21416015 64.28583984v298.28583985a32.14248047 32.14248047 0 0 0 32.14248047 32.14248047z" p-id="10579"></path>
	</g>
</svg>
