<svg viewBox="0 0 1024 1024" xmlns="http://www.w3.org/2000/svg">
	<path d="M316 96h392c122 0 220 98 220 220v392c0 122-98 220-220 220H316C194 928 96 830 96 708V316C96 194 194 96 316 96z" fill="#0284C7" opacity="0.12" />
	<circle cx="760" cy="264" r="96" fill="#84CC16" opacity="0.22" />
	<path d="M266 792c92 56 238 74 370 18 108-46 190-138 220-246" fill="none" stroke="#7DD3FC" stroke-width="54" stroke-linecap="round" opacity="0.28" />
	<g fill="#0284C7" stroke="#0284C7">
		<path
        d="M72.10250036 211.01750035a439.89749964 138.91499999 0 1 0 879.79499928 0 439.89749964 138.91499999 0 1 0-879.79499928 0Z"
        p-id="3063"></path>
    <path
        d="M512 720.3725c-193.32337464 0-357.47460036-39.35925036-416.51347536-93.99914964a13.79889037 13.79889037 0 0 0-23.38402428 9.95557464V812.98249965c0 76.63477464 197.02777536 138.91499999 439.89749964 138.91499999s439.89749964-62.28022536 439.89749964-138.91499999v-176.65357465c0-12.27082536-14.35455036-18.29047464-23.38402428-9.95557464C869.47460036 681.01324964 705.32337464 720.3725 512 720.3725z"
        p-id="3064"></path>
    <path
        d="M512 419.39000036c-193.32337464 0-357.47460036-39.35925036-416.51347536-93.99915071a13.79889037 13.79889037 0 0 0-23.38402428 9.95557571V512c0 76.63477464 197.02777536 138.91499999 439.89749964 138.91499999s439.89749964-62.28022536 439.89749964-138.91499999v-176.65357464c0-12.27082536-14.35455036-18.29047464-23.38402428-9.95557571C869.47460036 380.03075 705.32337464 419.39000036 512 419.39000036z"
        p-id="3065"></path>
	</g>
</svg>
