<svg viewBox="0 0 1024 1024" xmlns="http://www.w3.org/2000/svg">
	<path d="M316 96h392c122 0 220 98 220 220v392c0 122-98 220-220 220H316C194 928 96 830 96 708V316C96 194 194 96 316 96z" fill="#65A30D" opacity="0.12" />
	<circle cx="760" cy="264" r="96" fill="#3B82F6" opacity="0.22" />
	<path d="M266 792c92 56 238 74 370 18 108-46 190-138 220-246" fill="none" stroke="#BEF264" stroke-width="54" stroke-linecap="round" opacity="0.28" />
	<g fill="#65A30D" stroke="#65A30D">
		<path
        d="M886.976 102q28.224 0 47.88 19.656t19.656 47.88l0 51.408q0 28.224-19.656 47.88t-47.88 19.656l-747.936 0q-28.224 0-47.88-19.656t-19.656-47.88l0-51.408q0-28.224 19.656-47.88t47.88-19.656l747.936 0zM886.976 417.504q28.224 0 47.88 19.656t19.656 47.88l0 51.408q0 28.224-19.656 47.88t-47.88 19.656l-747.936 0q-28.224 0-47.88-19.656t-19.656-47.88l0-51.408q0-28.224 19.656-47.88t47.88-19.656l747.936 0zM886.976 733.008q28.224 0 47.88 19.656t19.656 47.88l0 51.408q0 28.224-19.656 47.88t-47.88 19.656l-747.936 0q-28.224 0-47.88-19.656t-19.656-47.88l0-51.408q0-28.224 19.656-47.88t47.88-19.656l747.936 0z"
        p-id="1411"></path>
	</g>
</svg>
