<svg viewBox="0 0 1024 1024" xmlns="http://www.w3.org/2000/svg">
	<path d="M316 96h392c122 0 220 98 220 220v392c0 122-98 220-220 220H316C194 928 96 830 96 708V316C96 194 194 96 316 96z" fill="#4F46E5" opacity="0.12" />
	<circle cx="760" cy="264" r="96" fill="#10B981" opacity="0.22" />
	<path d="M266 792c92 56 238 74 370 18 108-46 190-138 220-246" fill="none" stroke="#818CF8" stroke-width="54" stroke-linecap="round" opacity="0.28" />
	<g fill="#4F46E5" stroke="#4F46E5">
		<path d="M192 128h512c53 0 96 43 96 96v608c0 53-43 96-96 96H192c-53 0-96-43-96-96V224c0-53 43-96 96-96zm96 128v64h320v-64H288zm0 448v64h288v-64H288zm224-128c0-67 96-77 96-176 0-88-72-144-176-144-81 0-142 35-181 91l74 51c24-35 58-55 102-55 47 0 78 23 78 61 0 57-97 70-97 172h104zm-52 160c35 0 62-26 62-60s-27-59-62-59c-34 0-61 25-61 59s27 60 61 60zM800 256h32c53 0 96 43 96 96v352c0 53-43 96-96 96h-32V256z"/>
	</g>
</svg>
