<svg viewBox="0 0 1024 1024" xmlns="http://www.w3.org/2000/svg">
	<path d="M316 96h392c122 0 220 98 220 220v392c0 122-98 220-220 220H316C194 928 96 830 96 708V316C96 194 194 96 316 96z" fill="#9333EA" opacity="0.12" />
	<circle cx="760" cy="264" r="96" fill="#F97316" opacity="0.22" />
	<path d="M266 792c92 56 238 74 370 18 108-46 190-138 220-246" fill="none" stroke="#C084FC" stroke-width="54" stroke-linecap="round" opacity="0.28" />
	<g fill="#9333EA" stroke="#9333EA">
		<defs><style type="text/css"></style></defs><path d="M713 221c-12-9-27-6-36 0-9 9-15 24-9 36 6 12 9 27 12 42C599 110 464 68 458 65c-9-3-21 0-27 6-9 6-12 18-9 27 12 81-24 177-108 291-6-24-15-48-30-75-9-9-21-15-33-12-15 3-24 12-24 27-3 45-24 87-48 132C158 500 137 542 128 587c-30 141 93 309 219 357 9 3 18 6 30 9-24-18-39-48-45-90C308 680 506 632 515 464c144 99 210 315 129 474 3 0 6-3 9-3 0 0 3 0 3-3 153-84 237-195 243-324 15-198-153-366-186-387z" p-id="9178"></path>
	</g>
</svg>
