<svg viewBox="0 0 1024 1024" xmlns="http://www.w3.org/2000/svg">
	<path d="M316 96h392c122 0 220 98 220 220v392c0 122-98 220-220 220H316C194 928 96 830 96 708V316C96 194 194 96 316 96z" fill="#16A34A" opacity="0.12" />
	<circle cx="760" cy="264" r="96" fill="#0EA5E9" opacity="0.22" />
	<path d="M266 792c92 56 238 74 370 18 108-46 190-138 220-246" fill="none" stroke="#86EFAC" stroke-width="54" stroke-linecap="round" opacity="0.28" />
	<g fill="#16A34A" stroke="#16A34A">
		<path d="M658.38572999 76.54968889a308.45610667 308.45610667 0 0 1 218.11351779 377.77863111l-30.68055779 114.56663666 21.94242446 184.18043335a47.42864555 47.42864555 0 0 1-59.37076224 51.45789554L164.5355611 632.00369778a47.47719111 47.47719111 0 0 1-25.72894777-74.27413333l111.16847445-148.49972111 30.68055666-114.56663779a308.45610667 308.45610667 0 0 1 377.73008555-218.11351666zM425.07756999 947.45031111a142.38302777 142.38302777 0 0 0 174.32576-100.68271445l-275.00847332-73.69159111A142.38302777 142.38302777 0 0 0 425.07756999 947.45031111z" p-id="2789"></path>
	</g>
</svg>
