<svg viewBox="0 0 1024 1024" xmlns="http://www.w3.org/2000/svg">
	<path d="M316 96h392c122 0 220 98 220 220v392c0 122-98 220-220 220H316C194 928 96 830 96 708V316C96 194 194 96 316 96z" fill="#0891B2" opacity="0.12" />
	<circle cx="760" cy="264" r="96" fill="#F97316" opacity="0.22" />
	<path d="M266 792c92 56 238 74 370 18 108-46 190-138 220-246" fill="none" stroke="#67E8F9" stroke-width="54" stroke-linecap="round" opacity="0.28" />
	<g fill="#0891B2" stroke="#0891B2">
		<path d="M155.09375 385.15625H92.1875v453c0 34.78125 28.40625 63.09375 62.90625 63.09375H868.25c34.6875 0 62.90625-28.40625 62.90625-63.09375V385.15625H155.09375z m720.28125-153.84375H780.3125c-1.875 0-3.75 0.09375-5.71875 0.28125h-286.875v-51.1875c0-31.125-25.21875-56.34375-56.25-56.34375H148.71875c-31.125 0-56.25 25.3125-56.25 56.34375v163.125h838.96875V287.375c-0.09375-30.84375-25.3125-56.0625-56.0625-56.0625z" fill="#0891B2" p-id="1957"></path>
	</g>
</svg>
