<svg viewBox="0 0 1024 1024" xmlns="http://www.w3.org/2000/svg">
	<path d="M316 96h392c122 0 220 98 220 220v392c0 122-98 220-220 220H316C194 928 96 830 96 708V316C96 194 194 96 316 96z" fill="#16A34A" opacity="0.12" />
	<circle cx="760" cy="264" r="96" fill="#0EA5E9" opacity="0.22" />
	<path d="M266 792c92 56 238 74 370 18 108-46 190-138 220-246" fill="none" stroke="#86EFAC" stroke-width="54" stroke-linecap="round" opacity="0.28" />
	<g fill="#16A34A" stroke="#16A34A">
		<g fill="none" stroke="#16A34A" stroke-linecap="round" stroke-linejoin="round" stroke-width="68">
		<path d="M164 178h696a72 72 0 0 1 72 72v406a72 72 0 0 1-72 72H510L314 874v-146H164a72 72 0 0 1-72-72V250a72 72 0 0 1 72-72z" />
		<path d="M362 360l34 84 84 34-84 34-34 84-34-84-84-34 84-34 34-84zM598 376h148M598 520h102" />
	</g>
	</g>
</svg>
