<svg class="icon" viewBox="0 0 1024 1024" xmlns="http://www.w3.org/2000/svg"><path d="M512 96c230 0 416 186 416 416S742 928 512 928 96 742 96 512 282 96 512 96zm0 96c-177 0-320 143-320 320s143 320 320 320 320-143 320-320-143-320-320-320zm-32 128h64v64c74 12 128 57 128 128h-96c0-35-29-56-64-56s-64 18-64 48c0 34 35 43 91 58 66 18 149 42 149 139 0 72-53 121-144 134v61h-64v-61c-92-13-144-66-144-146h96c0 45 32 72 80 72s80-23 80-57c0-36-37-46-94-62-66-18-146-41-146-135 0-70 49-120 128-134V320z"/></svg>
